<mxfile host="app.diagrams.net" agent="Mozilla/5.0 (Windows NT 10.0; Win64; x64) AppleWebKit/537.36 (KHTML, like Gecko) Chrome/127.0.0.0 Safari/537.36" version="24.7.7">
  <diagram id="C5RBs43oDa-KdzZeNtuy" name="Page-1">
    <mxGraphModel dx="1981" dy="538" grid="1" gridSize="10" guides="1" tooltips="1" connect="1" arrows="1" fold="1" page="1" pageScale="1" pageWidth="827" pageHeight="1169" math="0" shadow="0">
      <root>
        <mxCell id="WIyWlLk6GJQsqaUBKTNV-0" />
        <mxCell id="WIyWlLk6GJQsqaUBKTNV-1" parent="WIyWlLk6GJQsqaUBKTNV-0" />
        <mxCell id="14brt2lEtJcqYIxQrarm-0" value="Network" style="rounded=1;whiteSpace=wrap;html=1;fillColor=#1ba1e2;fontColor=#ffffff;strokeColor=#006EAF;" vertex="1" parent="WIyWlLk6GJQsqaUBKTNV-1">
          <mxGeometry x="10" y="10" width="120" height="60" as="geometry" />
        </mxCell>
        <mxCell id="14brt2lEtJcqYIxQrarm-1" value="Host : 네트워킹 된 주체" style="rounded=0;whiteSpace=wrap;html=1;" vertex="1" parent="WIyWlLk6GJQsqaUBKTNV-1">
          <mxGeometry x="220" y="20" width="220" height="20" as="geometry" />
        </mxCell>
        <mxCell id="14brt2lEtJcqYIxQrarm-2" value="네트워크 제공자" style="rounded=0;whiteSpace=wrap;html=1;" vertex="1" parent="WIyWlLk6GJQsqaUBKTNV-1">
          <mxGeometry x="180" y="60" width="130" height="20" as="geometry" />
        </mxCell>
        <mxCell id="14brt2lEtJcqYIxQrarm-3" value="네트워크 이용자 (단말, EndPoint)" style="rounded=0;whiteSpace=wrap;html=1;" vertex="1" parent="WIyWlLk6GJQsqaUBKTNV-1">
          <mxGeometry x="330" y="60" width="240" height="20" as="geometry" />
        </mxCell>
        <mxCell id="14brt2lEtJcqYIxQrarm-4" value="Router" style="rounded=0;whiteSpace=wrap;html=1;" vertex="1" parent="WIyWlLk6GJQsqaUBKTNV-1">
          <mxGeometry x="185" y="90" width="115" height="20" as="geometry" />
        </mxCell>
        <mxCell id="14brt2lEtJcqYIxQrarm-5" value="Client : 네트워크 이용 목적이 &quot;요청&quot;" style="rounded=0;whiteSpace=wrap;html=1;" vertex="1" parent="WIyWlLk6GJQsqaUBKTNV-1">
          <mxGeometry x="340" y="90" width="220" height="20" as="geometry" />
        </mxCell>
        <mxCell id="14brt2lEtJcqYIxQrarm-6" value="Server : 네트워크 이용 목적이 &quot;응답&quot;" style="rounded=0;whiteSpace=wrap;html=1;" vertex="1" parent="WIyWlLk6GJQsqaUBKTNV-1">
          <mxGeometry x="340" y="120" width="220" height="20" as="geometry" />
        </mxCell>
        <mxCell id="14brt2lEtJcqYIxQrarm-7" value="Peer : 네트워크 이용 목적이 &quot;구성원&quot;" style="rounded=0;whiteSpace=wrap;html=1;" vertex="1" parent="WIyWlLk6GJQsqaUBKTNV-1">
          <mxGeometry x="340" y="150" width="220" height="20" as="geometry" />
        </mxCell>
        <mxCell id="14brt2lEtJcqYIxQrarm-8" value="Network&lt;div&gt;Topology&lt;/div&gt;" style="rounded=1;whiteSpace=wrap;html=1;fillColor=#1ba1e2;fontColor=#ffffff;strokeColor=#006EAF;" vertex="1" parent="WIyWlLk6GJQsqaUBKTNV-1">
          <mxGeometry x="10" y="200" width="120" height="60" as="geometry" />
        </mxCell>
        <mxCell id="14brt2lEtJcqYIxQrarm-10" value="" style="shape=image;verticalLabelPosition=bottom;labelBackgroundColor=default;verticalAlign=top;aspect=fixed;imageAspect=0;image=data:image/png,iVBORw0KGgoAAAANSUhEUgAAAQsAAAFBCAIAAADv9B0PAAAAAXNSR0IArs4c6QAAAARnQU1BAACxjwv8YQUAAAAJcEhZcwAADsMAAA7DAcdvqGQAAAASdEVYdFNvZnR3YXJlAEdyZWVuc2hvdF5VCAUAABTSSURBVHhe7d3/X833/8fxz7/SN19KURdlJkWSL118uxQm9EVjYYtcitBYcqF2kVhIU5dtMiPEpRlhNmtTaLHqItS2pDhbkS9JqlP7POz1mOxt56Vzzuuc1+v5OvfrDy7rwfnyfJ3X7bzOa51O/+cEAKahEAA5KARADgoBkINCAOSgEAA5KARADgoBkINCAOSgEAA5KARADgoBkINCAOSgEAA5KARADgoBkINCAOSgEAA5KARADgoBkINCAOSgEAA5KARADgoBkINCAOQ4RCHOzs6Bwho6dCgvA9Sg80Lc3NzKysp6enr+ElZfX5/BYPD29uYlgX3pvJBPPvmEdzTB3b17l2rnVYEd6bkQ2qW6u7ulPay6uvpnMdExRFoCveLihYEd6bkQDw8Pad8iY8aM4alQXFxcXr5EDAkJ4SnYEQrRNBSiOhSiaShEdShE01CI6lCIpqEQ1aEQTUMhqkMhmoZCVIdCNA2FqA6FaBoKUR0K0TQUojoUomkoRHUoRNNQiOpQiKahENWhEE1DIapDIZqGQlSHQjQNhagOhWgaClEdCtE0FKI6FKJpKER1KETTUIjqUIimoRDVoRBNQyGqQyGahkJUh0I0DYWoDoVoGgpRHQrRNBSiOhSiaShEdShE01CI6lCIpqEQ1aEQTUMhqkMhmoZCVIdCNA2FqM5RCsnPz98hpt7eXmkJKEQVjlKIDqAQVaAQYaAQVei5EHoRP01HhgwZwgsDO8IxRBg4hqgChQgDhagChVilr6+voaHh5s2bRqORRzaDQlSBQqxSUlIi3dY777zz8n/L2ggKUQUKscqoUaP4xpycHj58yFPbQCGqQCFWycrKkm5rxIgRtn6hhUJUoedC3N3deeeyGToPuXTp0uHDh7u7u3lkM8HBwbwwsCM9F0IuXLjA+5fg6CRn2LBhvCqwI50X4u3t3dbWxnuZyGbMmMFLAvvSeSFk8ODB06ZNm6OQrVu38j4rq7Kyki9gtbCwMB8fH14M2J3+C1FWTEwMRyDr/PnzfAEQHAoxDwpxNCjEPCjE0aAQ86AQR4NCzLN48WKOQFZpaSlfAASHQsyzY8cOjkBWW1sbfpxDH1CIGaZMmdLR0cERvMmePXtcXV35kiAsFDIg4eHhRUVF5r57t66ubv369XwVICYUMiD79u2jF04WqK+v56sAMaEQADkoBEAOCgGQg0IA5KAQADkoBEAOCgGQg0IA5KAQa61atWrXrl2BgYH8NegLCrHc3LlzL168+Ndff7W2ttKfOTk5Hh4e/HegFyjEEv7+/oWFhVRFSUlJaGgoTdatW3f37t22tra0tDTp34A+oBCzZWVlGY3GmpqaJUuW8Ohvzs7OmZmZnZ2d9fX1CQkJPAXBoRAzJCYmNjY20oEiNTWVR6/x9fX97LPP6PBy+fLlyMhInoKwUMiAzJs3r6ysjPb7vLw8Ly8vnpo2efLk4uJi+venTp2SXoaBoFDIGwQEBBw5coT29dOnT0+ZMoWnAxMRESF1VVBQ8NZbb/EUhIJCTHJxcZF+5ra6ujo2Npan5ouPj79161ZPTw9dm5ubG09BECjkvyUlJTU3Nz948GDDhg08sg6durS2thoMhg8//JBHIAIU8r/opRGdZNOhIzc3V9nvbwwdOjQ7O7uvr+/69evLli3jKWgbCukXGBhYVFREbZw8edJ2v6zD39//4MGDdCulpaVz587lKWgVCnmBTg/o2Z322mvXrsXExPDUlqZPn37mzBm6xePHj+MXg2gZCnFKTk6+d+9eS0tLSkoKj+yFaqysrKRO8vLy8AHv2uTQhSxcuLCiooJ20JycHHd3d57aXVJSUkNDw9OnTzMyMngEmuGghQQFBZ04cYLaKC4unjhxIk9VtXXr1idPnjQ2Nq5evZpHoAEOV8jgwYN3795NbdDLm+joaJ5qw/Dhwz/99FO6b1evXrXmOzCgIMcqZN26dX/8TcsfhUjHt2PHjlEn586dmzVrFk9BJY5SSFRUlHROTAcQOozwVMNmz54t/ZrSQ4cOBQQE8BTsTv+FBAcHS28ipBMPenrmqSDi4uJqamrozu/Zswc/nqUKPRfi7u6ek5NDu1dFRcXChQt5KiB6TXjv3j38eJYqdFtISkpKS0sL7VjJyck8EpmLi8v27du7urrq6upWrFjBU7A9HRYSExNz7do1OnRkZ2fr7L20fn5+X3zxBS2tvLxc6KOiQHRVSEhIyMmTJ2kHKioqGjduHE91Z8qUKdIy6c+pU6fyFGxDJ4XQWWxubi7tNJcvX54/fz5PdW3BggXSj2ft379/1KhRPAWl6aGQDRs2PHjwoLm52QG/Gx0fH09nJt3d3VlZWfilcLYgdiGxsbHV1dX0PLpz505H3j82bdpEzxEGg8H+b77UPVELmTx58unTp6mNo0eP4vMOibu7u/RumpqamqVLl/IUrCZeIV5eXnl5ebQrlJeXz5s3j6fwt7Fjxx46dIg2zoULF+bMmcNTsIJghaSmpra1tTU2NiYmJvIIXjNz5syzZ89SJ0VFRRMmTOApWESYQpYsWUKvH4xGI52S8ghkLVq0SHor2r59+7y9vXkKZhKgkNDQ0JKSEnqkCwsL/f39eQoDk5SURIfc9vb29PR0HoE5NF3IiBEj8vPzqY2LFy/iQw+skZGRQZHcvn2bguERDIymC4mLi6MHddWqVfw1WIFeaOXl5RkMBnyqnVkEO1MHK+FzVcyFQgDkoBAAOSgEQA4KAZCDQgDkoBAAOSgEQA4KAZBjbSGenp5+Yho5ciSvQWM8PDz4LorG19fXxcWFl6EXlhcyfvx46cPOxGUwGDT1yTre3t4//fST0Wjk+yegtra2LVu28Hp0wcJChg8f/uTJE94qgrPdr5sy1++//873SXB6+kQvCwuJiIiQtkVfX19DQwM9tMJpbm6WlnD8+HFelaq8vLx6e3ulu3T79m2+l0K5c+eOdP+vXLnCqxKfhYUkJiZK26Knp8fZ2ZmnQgkNDZWWUFVVxSNVTZ06Vbo/RIjP3n6dv7+/dP+pcB6Jz8JCkpKSpG2BQpTy8v4Q0QtpbGzkkfhQCApRDArph0IUh0K0CYWgEMWgkH4oRHEoRJtQCApRDArph0IUh0K0CYWgEMWgkH4oRHEoRJtQCApRDArph0IUh0K0CYWgEMWgkH4oRHEoRJtQCApRDArph0IUh0K0CYWgEMWgkH4oRHEoRJtQCApRDArph0IUh0K0CYWgEMWgkH4oRHEoRJtQCApRDArph0IUh0K0CYWgEMWgkH4oRHEoRJtQCApRDArph0IUh0K0CYWgEMWgkH4oRHEoRJtQCApRDArph0IUh0K0ydpCjEZjpJhSUlKkJWiwkEWLFvG9FEpCQoJ0/1FIfyE6oMFCRIdCUIjyUIg2WVjIoEGDfPTCy8uLV6UqV1dXvkPiGz58OK9KfDiG4BiiPBxDUIjyUIg2oRAUojwUYvNCuru7AwMD6aU5vaJ99OgRT23DcQqJjIykTerh4fHzzz/zyDZQiM0LeXUT5+Tk8NQ2HKeQl9+IXLVqFY9sA4XYvJD79+/zLTk52foJz3EKGTlypHRbubm5PLINFOK0cuVK3hg2U1lZuW7duuLi4t7eXh7ZBt0Qr0pVISEhfIdspq6ubtOmTQcOHHj+/DmPbOO3337jVYnPwkImTZrEG0N8qampvCpVubi42HrHtZvCwkJelfgsLIRO+OipiLeHyGpra+nMlVeltoyMDKPRyPdMWE1NTWPGjOElic/CQoizs/PChQszMzN3KKSlpYW3sayvvvqKL2CdrKyshIQESp3Xow0zZ86kTvguWo3OB3iryTp16hRfwGrJycmenp68GF2wvBDF0dM5P2KyZsyYwReAN/nxxx95q8mKj4/nC8BrUIieoRDroRA9QyHWQyF6hkKsp6FCbt68yY+YrFmzZvEF4E3Kysp4q8lauXIlXwBeo5VChgwZ0t3dzY+YLDycA+Tq6trZ2clbTdb+/fv5MvAaTRTi7OyclZXFD9ebNDU1DRo0iC8JpkVGRvIme5PHjx+7u7vzxeDf1C8kOjr6+vXrfX19/HANQEdHx5YtW16+ywj+x+zZs0tLS83apHQAz8nJGTt2LF8F/EP9Qiz+LvLHH3/MVwH/1tXVxdvITGfPnuWrgH+oXwgdCiyjnXeLaA1vIPNp5Ef2NUUrZ+oA2oRCAOSgEAA5KARADgoBkINCAOSgEAA5KMSxbNy4cfHixfwFDAAKcRS+vr7ffPON9L3zw4cPe3t781+ALBTiEJYvX97a2lpTUxMWFhYbG1tXV3f//v2kpCT+azANhejf559/TseN/Px8/vpv0idZlpSUjBs3jkfwX1CIns2ZM6e2tvaPP/6Ii4vj0SvoeFJRUWE0Gjdv3swjeA0K0a1t27bRUaK4uNjHx4dH/yU9PZ3+WXl5+cyZM3kEr0AhOjR+/PjS0lI6OKSkpPBIVnBw8Lfffkud7Nq1i0fwDxSiN2vWrOns7KRjwqRJk3g0MMnJyQ8fPrxx40Z0dDSPAIXoiaen57Fjx+hQsHPnTh6ZydfX9+jRo3QNBQUF+PEbCQrRiUWLFjU1NdXX18+fP59HlqLT+sbGRoPBsGLFCh45MBSiB3v37qUn/oMHDyr1GRdubm75+fl0nXSir6ePqbYAChHb9OnTr169+ujRI1t8SFJERERVVdWzZ882btzII8eDQgS2efNmepo/e/bs22+/zSMbyMzMpFspLS0NDQ3lkSNBIUIaPXr0mTNnaMe1zzf7pk6d+sMPP9DNbd++nUcOA4WIh06gHz58eO3aNTt/hPGGDRs6Ojqqq6vp1RePHAAKEQmdQH/55Zf0XJ6bm8sj+6KXc3TuTneAzuMd5JMvUYgw6Jm7rq6uqakpNjaWRyqJj4+/d+9eY2Pj0qVLeaRfKEQMO3bsoGfuoqIijXzom4eHR0FBAd2lY8eO+fn58VSPUIjWhYSElJWVPX/+PDk5mUeaERUVVVtb++jRo7Vr1/JId1CIpqWkpBiNxtLS0qCgIB5pT3Z2Nh1Mzp8/TzHzSEdQiEb5+PhI58SZmZk80rAZM2aUl5fTvc3IyOCRXqAQLYqLizMYDDdu3Jg7dy6PRJCWltbT01NZWRkeHs4j8aEQzZHeEPXFF1/w10IJDAwsKSmh+793714eCQ6FaEhYWFhNTU1ra+v777/PIzElJibSKurr6999910eCQuFaAW9gqen3lOnTunjf56OGDHi0KFDtCL6U+hPHkIh6qNXJt9//z3tTB999BGP9IKOIb/++isdT+iowiPRoBCV0a7z9OnTK1eu6Pids9KPr9D5CT0X8EgcKEQ17u7uhYWFtOvs3r2bR/oVHh5eWVnZ09OTlpbGI0GgEHVER0ffvn27oaEhKiqKRw5AOtcqKyuz87uSrYFCVLBnzx7aUQ4fPjx06FAeOYyJEyeeP3+elp+dnc0jbUMhdkUnGxUVFe3t7eKeuSpi7dq1jx8/rq2t1f4hFIXYT2pqKj13fvfddwEBATxyYH5+ftJnF+3fv1/LnzyEQuwkLCyM9ob09HT+Gv62dOnSxsZGLX/WIwqxH4qE/wteofGfVUQhAHJQCIAcFAIgB4UAyEEhAHJQCIAcFAIgB4UAyEEh/dzc3DyF5eLiwsuwjWHDhvEticbK70iikBcGDx68a9euZ8+e/SWslpaWhIQEXo+iIiMjm5qa+GYE1Nvbe+DAAYs/qxKFvPD111/z5hTcmjVreEkKCQkJMRqNfO0iu3jxoqurK6/KHCjkxYur7u5uaTs+efLksYDa29ul+3/z5k1elUIMBoN0zR0dHXxjonlZuGW/MB6FvPjt49IWJIL+AlhfX1/p/re2tvJICXRu09XVJV2z6h84b7Hr169LS1iyZAmPzIFCnIKCgqQtSFDIq3RWyHvvvccjc6AQFGISCiEoBIWYhEIICkEhJqEQgkJQiEkohKAQFGISCiEoBIWYhEIICkEhJqEQgkJQiEkohKAQFGISCiEoBIWYhEIICkEhJqEQgkJQiEkohKAQFGISCiEoBIWYhEIICkEhJqEQgkJQiEkohKAQFGISCiEoBIWYhEIICkEhJqEQgkJQiEkohKAQFGISCiEoBIWYhEIICkEhJqEQgkJQiEkohKAQFGISCiEoBIWYhEIICkEhJqEQgkJQiEkohKAQFGISCiEoBIWYhEIICvlXIX5+fsMEFBgYKN1/2xWyfPlyvjHR3LhxQ1oCCrHQq4WIznaF6AAKsRAKMQWFEBTy4vcYjtOLgIAAXpVC+Hp1wbKTTBTiRC/iDXpRW1vLq1KCs7PznTt3+KrFFxUVxQszBwrBqyyT8CqLoBAUYhIKISjEHoXk5+d7e3v7+/tfunSJR7YhXCF//vnnhAkT6AwhPT2dRzaDQixkh0J8fHyk24qMjOSRbQhXCG0QvjEnp+bmZp7aBgqxkB0KCQwMlG7rgw8+4JFtCFdISkqKdFuDBg168OABT20DhVjo5TekbaeysjImJiY+Pp72YB7ZRktLC69KCc7OzrYupLe3d/Xq1fPnzy8tLeWRzSxevJgXZg4U4uTq6vr06VPeioL75ZdfeFUKefmmJh2YNGkSr8ocKOSFnTt3Go1G3pDC6ujoWLBgAS9JIXQG1d7ezjcgsoKCAl6SmVAIi4iIOHfu3GWFDPDVVGNjI1/AOpcuXTp69OjYsWN5MYry8PA4cOAA3QTfmHWqqqp48bKodr6A1S5cuGDZGYgEhdjEiRMn+KGWlZaWxhdwGMHBwbx4WTU1NXwBtaEQm0AhpqAQeAGFmIJC4AUUYgoKgRdQiCkoBF64c+cOP9SySkpK+AIOIzw8nBcvS9lvfVoDhSjPx8dngN9defbsmaurK1/MAbi5ud26dYsX/yYaOcCiECUFBQVt27ato6ODH+QBaG1t3bhx4+jRo/kqdMrT03PZsmX02omXPQBdXV1HjhyZNm0aX4VKUIiSOjs7+eE1U1VVFV+FTq1fv56XaiZ6uuGrUAkKURK9yJ5jkdDQUL4KnRo1ahQv1UxhYWF8FSpBIQByUAiAHBQCIAeFAMhBIQByUAiAHBQCIAeFAMhBIQByUAiAHBQCIAeFAMhBIQByUAiAHBQCIAeFAMhBIQByUAiAaU5O/w/Vx4dByF/eIgAAAABJRU5ErkJggg==;" vertex="1" parent="WIyWlLk6GJQsqaUBKTNV-1">
          <mxGeometry x="30" y="270" width="108.13" height="130" as="geometry" />
        </mxCell>
        <mxCell id="14brt2lEtJcqYIxQrarm-11" value="n = 2&lt;sup&gt;h&lt;/sup&gt;- 1&lt;br&gt;&lt;div&gt;&lt;span style=&quot;background-color: initial;&quot;&gt;2&lt;/span&gt;&lt;sup style=&quot;background-color: initial;&quot;&gt;h&lt;/sup&gt;= n + 1&lt;/div&gt;&lt;div&gt;h = log&lt;sub&gt;2&lt;/sub&gt;n&amp;nbsp;&lt;br&gt;&lt;sup&gt;&lt;/sup&gt;&lt;div&gt;O(H) = O(&lt;span style=&quot;background-color: initial;&quot;&gt;log&lt;/span&gt;&lt;sub style=&quot;background-color: initial;&quot;&gt;2&lt;/sub&gt;&lt;span style=&quot;background-color: initial;&quot;&gt;n )&lt;/span&gt;&lt;/div&gt;&lt;/div&gt;" style="text;html=1;align=center;verticalAlign=middle;whiteSpace=wrap;rounded=0;" vertex="1" parent="WIyWlLk6GJQsqaUBKTNV-1">
          <mxGeometry x="138.13" y="270" width="115" height="80" as="geometry" />
        </mxCell>
        <mxCell id="14brt2lEtJcqYIxQrarm-12" value="Tree&lt;div&gt;&lt;br&gt;&lt;/div&gt;&lt;div&gt;장점 : 노드의 추가 삭제 용이&lt;/div&gt;&lt;div&gt;단점 : 특정 노드에서 트래픽이 심하면 하위노드에 영향이 간다&lt;/div&gt;" style="text;html=1;align=left;verticalAlign=middle;whiteSpace=wrap;rounded=0;" vertex="1" parent="WIyWlLk6GJQsqaUBKTNV-1">
          <mxGeometry x="30" y="410" width="190" height="80" as="geometry" />
        </mxCell>
        <mxCell id="14brt2lEtJcqYIxQrarm-13" value="" style="shape=image;verticalLabelPosition=bottom;labelBackgroundColor=default;verticalAlign=top;aspect=fixed;imageAspect=0;image=data:image/png,iVBORw0KGgoAAAANSUhEUgAAAVYAAADaCAIAAAByyP3DAAAAAXNSR0IArs4c6QAAAARnQU1BAACxjwv8YQUAAAAJcEhZcwAADsMAAA7DAcdvqGQAAAASdEVYdFNvZnR3YXJlAEdyZWVuc2hvdF5VCAUAABJvSURBVHhe7d35V1XV/8fx778io0GEgpCggAySguSAhIpWiJqpYUkqCqhhKpQIWaaFmJHkSKOFpYaZQTmgAorihKggMonIFAif91r7vbwt60scuAf3Puf1+KG19q077HPOfu5ztQX/NwQATAwJADA1JADA1JAAAFNDAgBMDQkAMDUkAMDUkAAAU0MCAEwNCQAwNSQAwNSQAABTQwIATA0JADA16yfA1tZ2mLLs7Ox4Ggbl4ODAU1WNq6srXVo8DbAeaybA3t4+JSWlubm5R1mtra2bN2/m+RiLk5NTdnZ2e3s7T1VBtbW18fHxPB+wEmsmIDU1lc+V4nJycnhKBpKfn8/TU9zy5ct5SmANVksA3UK3tLSIk9TQ0FCnoPr6evH5Ozo6bGxseGKG4Ojo2NnZKWZH0+QJK4UuKvH5S0tLeVZgDVZLwIgRI8QZIm5ubvyoUuhWWXz+rq4ugyUgMDBQTI04Ozvzo0rx9PQUn//u3bv8EFgDEmBh4AQEBQWJqREkAP4OCbBAAmSGBOgECbBAAmSGBOgECbBAAmSGBOgECbBAAmSGBOgECbBAAmSGBOgECbBAAmSGBOgECbBAAmSGBOgECbBAAmSGBOgECbBAAmSGBOgECbBAAmSGBOgECbBAAmSGBOgECbBAAmSGBOgECbBAAmSGBOgECbBAAmSGBOgECbBAAmSGBOgECbBAAmSGBOgECbBAAmSGBOgECbBAAmSGBOgECbBAAmSGBOgECbBAAmSGBOgECbBAAmSGBOgECbBAAmSGBOgECbBAAmSGBOgECbBAAmSGBOgECbBAAmSGBOgECbBAAmSGBOgECbBAAmSGBOgECbBAAmSGBOgECbBAAmSGBOgECbBAAmSGBOhElwSMHz/eW0EBAQHi8xs7AYGBgTxhpYSFhYnPjwRYly4JUJ2xE6A6JMC6kIB/gQTIDAmwLqslgNbMcKMYNmwYz8oobG1teW7qc3V15VmBNVgtAe7u7k1G0dDQYLC7AH9/f56b+q5evcqzAmvAF4F/gS8CMsMXAetCAv4FEiAzJMC6VErA4cOH3dzc6KtgdnY2P6QPJKAfNm3a5OLi4uXlVVBQwA/pAwmwLpUS4OPjI96LQsAP6QMJ6IfHf0oXExPDD+kDCbAulRIQFRUl3svX15cf0gcS0A90UsR7xcfH80P6QAKsy2oJ0HtnJtXV1XFxcYsXL75z5w4/pA/jJcDf35/npptz584tWLAgMTGxsbGRH9IHXQY8K7AGqyXA1ta2qqqKz5LiWltbDZYAOzu7hw8f8vQUV1hYyLMCa7BaAkh0dHRHRwefKGXRLQDdaPCUDCQ9PZ2mxpNUVlNTU3h4OE8JrMGaCSB+fn45OTmHrKSsrIzPfK8qKyv5CQO2b9++cePG8WQMJzIyMjc3l6c6YHRDziegVxcvXuQnDFhWVpaXlxdPBqzEygmwruTkZL6OekXR4SfAIMrLy+MT0KvVq1fzE0BKSAD0ExJgDEgA9BMSYAxIAPQTEmAMSAD0ExJgDFInYM+ePXwd9erSpUv8BBhEDQ0NfAJ6dfDgQX4CSEneBLi4uNy/f5+vo/8SFhbGT4NB4e3t3d3dzUe/Vy0tLfb29vw0kI+MCRg9evSGDRvq6ur4IuoDus6ysrKCg4P5JUA3dJAzMzPb2tr40PcB3S+sX79+1KhR/BIgExkTUFxczNeORhUVFfwSoJv29nY+3BoVFRXxS4BMZExAYGDghH7BXcAgCA0N5cOtUUBAAL8EyETqPw4EAL0hAQCmhgQAmBoSAGBqSACAqSEBAKaGBACYGhIAYGqKJSAxMbGkpIQHIJlDhw6lp6fzABShWALWrVt35coVHoBkjh49umvXLh6AIhRLQFJS0q1bt3gAkjl27NjOnTt5AIpQLAFLly6tra3lAUjmxIkT27dv5wEoQrEExMbGNjc38wAkU1hYuG3bNh6AIhRLwNy5czs7O3kAkjl9+vSWLVt4AIpQLAGzZs3q6enBT6GR09mzZzMyMngAilAsAREREZQAFxcXHoNMSkpK0tLSeACKUCwBYWFhlAAPDw8eg0zKyspSU1N5AIpQLAFjx46lBDz+VfYglfLy8nXr1vEAFKFYAnx8fCgB+AFhcrp+/XpycjIPQBGKJYC+AlAC8CPD5VRZWblq1SoegCIUS4CLiwslICIigscgk6qqqoSEBB6AIhRLgJ2dHSVg1qxZPAaZ1NTULFu2jAegCMUSQDo7O+fNm8cDkElDQ0NcXBwPQBHqJaC5uTk2NpYHIJOmpqbFixfzABShXgJqa2uXLl3KA5BJS0vLokWLeACKUC8Bt27dSkpK4gHIpKOjY/78+TwAa7C1tbW3tx86dKizs/Nzzz03fPjwESNGPP/8815eXj4+Pn5+fgEBAcHBwePGjev3/zWvXgLw/59Iq6ura86cOTzQn52dnaOjo5OT07PPPjts2DA3NzcPDw9aG6NGjfL19fX39w8KCqLlERISEhYWNnHixPDw8IiIiGnTpkVFRb388svR0dH0aV977bXXX3/9jTfeoK8wS5YsoRvM+Pj4hISEVatWvfPOO2vXrl2/fn1qaurGjRvT09M3b968ZcuWrVu3ZmZmZmVl7dy5c9euXV9++eXevXsPHDjw9ddff/fddz/88MOhQ4d+/vnnX3755dixY7/99ltBQcGff/55+vTps2fPFhcXl5aWXrp0iS7ja9eu3bx5k7a0qqqqmpqaurq6hoYG+jJFN1NtbW1//fXXo0ePevps5MiRfFw0Ui8BJSUlmzZt4gH8m75vHaGhoS+++OLkyZNpeURGRs6YMWPmzJmvvvrq7Nmz586dS1v6woULY2Nj33rrrbfffnvZsmUrV65MTExcvXo1rQ0KcUpKynvvvUenIyMj48MPP6QL/ccff9y+fftnn32WnZ1Ny2PPnj379+/Pzc399ttvv//+e/q3P/3005EjR/Lz848fP/77778XFhaeOnXqzJkz586dozN78eLFy5cvX7169caNG7Q8bt++XV1dfe/ePVob9+/fb25upuVB9xrUmj7+avPe0evQq7W2tj58+JBen96FvmbSO965c6eyspI+A30SWqv0qeiznT9/nj4nfdo//viDPjl9fpoFzYVmlJeXR7OjOX711Vc0X5p1Tk4OHQH6V/TETz/9lKrx0Ucf0VGiY/X+++9TU+jo0TFcs2YNHU86qnRs6QjTcaajTcecjvy8efPoLNC5mDVrFp0XOjtTp06lM0Xna8KECXTu6AwGBgbS2aRz6u3tTeeXT79G6iWAzsHHH3/MA+3+vnW4uro+sXWMGTPmia1jypQpYuug0yC2jpiYGLF10PfeJ7YO+oaix9ZB2wVdlP/cOu7evTvAreP/Qwuss7Ozvb2dXvbBgweNjY319fW0U9HyoGVJH+D69etXrlyhj3ThwgW6yulD0vI4efIkfewTJ078+uuvNJHDhw/TpGhqNMFvvvmGJrtv377du3fT9D///PMdO3bQAdm2bRudTTpEtDzS0tLooG3YsOHdd9+lw0j7MC0POrB0eOPi4uhQ0169YMECOvi0e9OJoNNB+/n06dPpBFHCJk2aRKeMTtwLL7xAJ5HuAmh50Gmlk+vp6Uknmu4UXFxc6NTTBUCXAV8QelLi59z1lgB3d3exdYwePVpsHWPHjhVbBx1rsXW89NJLYut45ZVXntg63nzzTbF1rFixQmwdycnJ/9w6aG188sknfd866BKkK68vWwddtTptHbTSaL3R1kFrT2wdtBppTdLWUVFRQauU1mpZWRnd8tHWUVRURCuZtg5aHrS2aRZHjx6l1U5bx8GDB2l5iK2DikBbxxdffEGNoFI83jo++OADei69OC0PKovYOqg1tHUsX76clofYOqhHYuugQj2xdVDFxNYxfvz4f24ddINAy4NuFuiW4ZlnnqHbB7qJ4CsABoauebogeSCr3hJAFxxf9X1DC0zcWdGSo4VHy48WIS3Fx1sHLVGKIi1XsXXQAhZbB90Niq2DlofYOmjZi62DQvDE1kGxEFsH5UNsHRQUsXVQYsTWQdERWwdlSGwdtDzE1kGpElsHxeuJrYMCJ7YOSp7YOiiCYuug5TFoW8c/UQXwy/lVRNchXfw8kFVvCaA18Petg26SxdYxcuRIsXXQjbTYOhwcHLB16AcJUBTdBdMuyANZqfdnASaEBCiKvqDJ/6MukQAFIAGKoq+f9L2YB7JCAhSABCgqOjq6p6eHB7JCAhSABCgqKiqKEuDo6MhjKSEBCkACFKXET7tFAhSABChq4sSJlAB3d3ceSwkJUAASoKiQkBBKgJeXF4+lhAQoAAlQVFBQECXAz8+Px1JCAhSABCjK19eXEjB27FgeSwkJUAASoKiRI0dSAkJDQ3ksJSRAAUiAotzc3CgBkydP5rGUkAAFIAGKcnZ2pgRERkbyWEpIgAKQAEU5ODhQAmbOnMljKSEBCkAC1NXd3T179mweSAkJUAASoK729vb5cv9IVSRAAUiAuh48eBAr96+9QAIUgASoq66ubqncv/YCCVAAEqAu+X/VKhKgACRAXTdv3lyzZg0PpIQEKAAJUFd5efn69et5ICUkQAFIgLpKS0s3btzIAykhAQrw9PT09/fnASglMjLSx8eHB1JCAgBMDQkAMDUkAMDUkAAAU0MCAEwNCQAwNSQAwNSQAABTQwIATA0J6A8bG5vw8PDk5OQUNa1du1byH2g3aIKDgxMSEvi4qGbDhg1z5swZOnQoT6ZfkADNbG1tMzMze9SXm5vLUzKrhQsXdnV18eFQVlFR0UB+bSESoNmMGTP42Cuuu7t7woQJPCtT6ujo4GOhuPT0dJ6SdkiAZhkZGeK419bWbldTfn6+mEJeXh7PynzGjBkjDgLZsWMHHxql7N27V3z+Cxcu8Ky0QwI027p1qzjuxcXF/JBqYmNjxRSOHz/OD5lPWFiYOAjEwcGBH1WK+IVl5Nq1a/yQdkiAZkiAMSABAhKgGRJgDEiAgARohgQYAxIgIAGaIQHGgAQISIBmSIAxIAECEqAZEmAMSICABGiGBBgDEiAgAZohAcaABAhIgGZIgDEgAQISoBkSYAxIgIAEaIYEGAMSICABmiEBxoAECEiAZkiAMSABAhKgGRJgDEiAgARohgQYAxIgIAGaIQHGgAQISIBmSIAxIAECEqAZEmAMSICABGiGBBgDEiAgAZohAcaABAhIgGZIgDEgAQISoBkSYAxIgIAEaIYEGAMSICABmiEBxoAECEiAZkiAMSABAhKgGRJgDEiAgARohgQYAxIgIAGaIQHGgAQISIBmSIAxIAECEqAZEmAMSICABGiGBBgDEiAgAZo9TkB7e/t1NdXU1IgpIAHCjRs3+NAopbKyUnx+JGBQPU6AASABxoAEDCokwBiQAAEJ0GzKlCmJRhETE8OzMh93d3c+CuqLjY3lWWmHBGiGuwBjwF2AgARohgQYAxIgIAGaDUICzpw5Ex8fn5+fz2PdIAG6qq6uprv03bt3P3r0iB/SBxIwqPROQHl5uZ2dHb2Rvb3947/10QkSoCt3d3fxXvv37+eH9IEEDCq9E3DkyBF+pyFDDhw4wI/qAwnQFUVcvNfKlSv5IX0gAYNK7wTU1dX5+PjQG3l4eLS1tfGj+kACdDV9+nR6IwcHB/pmxw/pAwkYVKmpqXzgddPe3n7q1Cn6J491QzeoPCvz8fLy4qOgp6Kiovr6eh7oht6FZ6UdEqBZSEhIZ2cnH3uVdXV1eXt786xMqampiY+F4lasWMFT0g4J6I/58+ffuXOHltAjK+Ez+V/4vx4w+uTiD6t5Pmbl5+dXXl5OQefjMmDd3d18qnpF/xk/YcAaGxuzsrJsbGx4StohAVK4ffs2Xx29MvmmLb/CwkI+Vb2iLYSfIAEkQApIgDEgAdBPSIAxIAHQT0iAMSAB0E9IgDEgAdBP9+7d46ujV76+vvwEkFJpaSmfql4tWbKEnyABJODpmzx5ch//MmnRokX8HJCPu7v7o779/W5eXh4/RwJIwFPm6el569YtvjT+S2tr66RJk/iZIBMnJ6eCggI+T/+ls7MzKSmJn/m0IQFP0/nz57X+X8BdXV2XL1+eNm0avwRI4OTJk42NjXyG+obu+yoqKtLS0vglnh4k4GnKz8//tV+mTp3KLwESOHr0KJ8YjVJSUvglnh4kAMDUkAAAU0MCAEwNCQAwNSQAwNSQAABTQwIATA0JADA1JADA1JAAAFNDAgBMDQkAMDUkAMDUkAAAU0MCAEwNCQAwNSQAwNSQAABTQwIATA0JADA1JADA1JAAABMbMuR/fNC1ZSog/n4AAAAASUVORK5CYII=;" vertex="1" parent="WIyWlLk6GJQsqaUBKTNV-1">
          <mxGeometry x="270" y="270" width="165.13" height="105.26" as="geometry" />
        </mxCell>
        <mxCell id="14brt2lEtJcqYIxQrarm-14" value="Bus&lt;div&gt;&lt;br&gt;&lt;/div&gt;&lt;div&gt;장점 : 중앙회선 하나를두고 각 단말을 중앙회선에 연결. 저렴.&lt;/div&gt;&lt;div&gt;단점 : 스푸핑 위험 (중간에 악의적인 노드를 심어서 트래픽 조작)&lt;/div&gt;&lt;div&gt;근거리통신망 (LAN) 에 주로 사용.&lt;/div&gt;" style="text;html=1;align=left;verticalAlign=middle;whiteSpace=wrap;rounded=0;" vertex="1" parent="WIyWlLk6GJQsqaUBKTNV-1">
          <mxGeometry x="270" y="410" width="190" height="110" as="geometry" />
        </mxCell>
        <mxCell id="14brt2lEtJcqYIxQrarm-15" value="" style="shape=image;verticalLabelPosition=bottom;labelBackgroundColor=default;verticalAlign=top;aspect=fixed;imageAspect=0;image=data:image/png,iVBORw0KGgoAAAANSUhEUgAAAV8AAAFDCAIAAAASw5o2AAAAAXNSR0IArs4c6QAAAARnQU1BAACxjwv8YQUAAAAJcEhZcwAADsMAAA7DAcdvqGQAAAASdEVYdFNvZnR3YXJlAEdyZWVuc2hvdF5VCAUAABprSURBVHhe7d39X1Rl/sfx77/CMBAkmCKI483ivYAarmispHiXCpuaq4upCBu5lnnTootaihabGaV5W0auIZs2spiKkqzOqjSIN4ngTYLcDNP3aq6P7CQXwwxwjtd15v38oUdccwbOdeacF+eMzMz/BQAAiKAOACCGOgCAGOoAAGKoAwCIoQ4AIIY6AIAY6gAAYqgDAIihDgAghjoAgBjqAABiqIPCTCaTWVk0B5AY6qAk1oXMzMzHjx//oiybzRYTE0PzASmhDko6fvw4HWQqa21tnThxIk0J5IM6qIedOLS0tNARpriioiKaFcgHdVDP6NGj6dj65Rd2cm5RUEJCAl9/u91OswL5oA7qiYuL44cWExISQqNKGThwIF//qqoqGgL5oA7qQR1AH6iDelAH0AfqoB7UAfSBOqgHdQB9oA7qQR1AH6iDelAH0AfqoB7UAfSBOqgHdQB9oA7qQR1AH6iDelAH0AfqoB7UAfSBOqgHdQB9oA7qQR1AH6iDelAH0AfqoB7UAfSBOqgHdQB9oA7qQR1AH6iDelAH0AfqoB7UAfSBOqgHdQB9oA7qQR1AH6iDelAH0AfqoB7UAfSBOqgHdQB9oA7qQR1AH6iDelAH0AfqoB7UAfSBOqgHdQB9oA7qQR1AH6iDelAH0AfqoB7UAfSBOqjHvQ71ampoaODrjzrIDHVQj3sdVIc6yAx1UE9ERESWUSxevJhmBfJBHdQTExNzyigOHTpEswL5oA7qwZUF6AN1UA/qAPpAHdSjQx3YCX///v3/8Ic/3L59m4a0gTrIDHVQjw516N27N/9ZK1eupCFtoA4yQx3Uo0MdwsPD+c/KyMigIW2gDjJDHdQTGxtLx5Zm8vPzo6KiRowYcefOHRrSBuogM9RBPcHBwQ6Hgw4vxZ06dYpmBfJBHZR09uxZOrwUN336dJoSyAd1UJLZbM7Ozq6trW3qIV6ejLS0tNAduq2srGzkyJE0H5AS6gC/Ki4upgB4tGTJEroD+AHUAX6FOkB7qAP8CnWA9lAH+BXqAO2hDvAr1AHaQx0gwGQy3bx5kwLgUW5uLt0H/ADqAAFDhw6lo78zdrs9MDCQ7gZGhzr4tQEDBsyfP7+uro6Ofi+cPn36pZdeanshBhgY6uDXmpqa6KD3UXFxMX0LMC7Uwa8tXbp0eZfMmDGDvgUYF+oAAGKoAwCIoQ4AIIY6AIAY6gAAYqgDAIihDgAghjoAgBjqAGJvvfXWggUL6AvwS6gDiJ08eXL79u30Bfgl1AHEUAdAHUAMdQDUAcRQB0AdQAx1ANQBxFAHQB1ADHUA1AHEUAdAHUAMdQDUAcRQB0AdQAx1ANQBxFAHQB1ADHUA1AHEUAdAHUAMdQDUAcRQB0AdQAx1ANQBxFAHQB1ADHUA1AHEUAdAHUAMdQDUAcRQB0AdQAx1AEEdwpRlNptpDtBtqINnISEhtNupplevXjSHzvyvDoGBgfPmzautrf1FWQ6HY+PGjcHBwTQl6AbUoSP9+vU7cuQI7XNqunjxYmxsLM2nY/+rQ0pKCt1Vcfv37zeZTDQr6CrUQej555+vqamhXU1x0dHRNKsOUB3Y4fTgwQN+n/r6+kdq4uvPWCwWPi/osr59+7KzUPoCnkhKSuL7mNPppN1ONQ0NDXwKH3zwAc2qA1QHdinC78AMGjSID6qFXRm1tLTwKYwePZpGAXrUsmXL+D7GDjMaUs2ECRP4FM6dO0dDHUAdAHywfPlyvo+hDipBHUAHqAPqACCGOqAOAGKoA+oAIIY6oA4AYqgD6gAghjqgDgBiqAPqACCGOqAOAGKoA+oAIIY6oA4AYqgD6gAghjqgDgBiqAPqACCGOqAOAGKoA+oAIIY6oA5qsFgsmzZt2qagDRs2hIeH0zSUgjqgDmrYtWsXn69ynE5namoqTUMpqAPqoAar1crnq6KtW7fSNJSCOqAOarDb7Xy+KiopKaFpKAV1QB0UEBQU1DZfFTU0NKj42WWoA+qggJkzZ7KZPnz4cPLkyeOe2LNnD98CsklPT6dVHDcuMzOTD44fP54mow7UwWh16NOnD/2fgXz66adsplevXg0JCaGhgAB2Mc+3gGwmTZpEqxgQwB4dPpiVlUVDEmOHBv2fC+pgqDqYTCaHw8Eu0QsLC9999905c+YoOkF3bFJ3795lMz1//jybjuWJjz76iG8B2aSmptIqWiwjRozgg/v27aP5SIYdDuzUjKX2zJkzjx8/plEX1MFQdejbt29ycvKqVav27t1bUVHBF6itrT1x4sS2bdsWLVo0ZswYWlQd/fv3V/pJB+706dPyfOKpexH46pWVlbE95JVXXunduzcthDoY78rCXVBQ0Isvvrhs2bL8/Hy2d7LHmC3f2Nh49uzZjz/+eOXKlYmJiaGhobS0rNgVOzsh4pNV1/Xr19mjRlN6FrwsgjvUwch1aI+d6M6fP3/Lli3Hjx+/ffs2/w42m+3gwYNr1qxJSUmJioqiRaUxd+5ctpJOp5OdRNBQQMCNGzf4ysuJ5ZhW1LXN2Qh7vJ577jka0ksXiuAOdfCvOjxlwIABbO9Zu3bt4cOHr1y5wr/hzZs3jx079ve//z0tLW3o0KG06LOzadMmtlZVVVX0tYtCdWBncPfv32eDbFPTkJaERdi+ffucOXNeeOEFWsg7qINf1+EpYWFhkydPzsrKKigoOH/+PP8RDx48KCkp2blzJ/+HOv1Pj7/77ju2GhUVFX92U1dX55q9pE6ePEkr+uc/s+12584dNrhnzx6aUk9rXwT28HWtCO5QB9TBk/j4+CVLluTl5VmtVn5AOhyO8vLyzz77LDs7OykpyZsT1O4wmUz19fV8pqpjne3BJybbivD999/z798jRXDn73VgZ87salA5ISEh+tThKb/73e9SU1NzcnK+/vrr69ev8xWorKw8cuTI+vXrZ8+ebbFYaNEeEhcXx3+KMURHR9PEuoTtujNmzNiyZYt2RXDnXgfa81QzadIkPoWu1MGpLJqAvnV4SkRExNSpU1evXr1v375Lly7x9WFn0f/617/Y77SFCxd2f91WrFjBv21sbCwNBQTwEcmxUy1a3YAAllQ+OHHiRBry2vPPP69nEdy11YGh3U5BfP27UgcDeIZ1eApLNTuRY8fzRx99xHZlfkXQ0NDALoZ37drFxn//+9+zZWhp77T9ubT7WyTwEcm514GdMvDBBQsW0JBH7Ytw4cIFfYrgzr0OqvO2DuyifYyB+Hq86WnUqFHsDIKdRxQXF//000/8cWJnGfv372dnHOy8o1+/frSoCLtKLykpYXdpbm7e64Z/H8k1NTXR6rrwP9lgm4Lm1k5bEU6fPs2/AytCXl7e3Llzn9Vfx7OfSzuZ+mJiYmhWHaA6sIfhhoEMGzaMz0t+Fotl1qxZ69ev//LLL69du8aPgerq6qNHj27cuJGdfj/1ELKOK/3C7fasVivNzSU0NHT69OmbN2+WpwjuWNlpJ1Mf28doVh3AlYVcevfunZSU9MYbb3z22Wfl5eX8t+u9e/cSExP5AkFBQew3MJ+mMTx69Kjtny2ys7P5oFRFcOePVxaog5zYYTNu3Lj09HT2APERdunBJvjw4cPg4GA+wvBZq4JWOiBg2rRp/BmyuLg4PjJ27FgJi+AOddDElStXBg8ezH437tixg4Y0Y5g6tMffS9Jms7m/dQqftSpopV1PwbS2trKRzMxMGpKe1nVoaWlZsGABu7xKSEhobGykUW1IVIf4+Hj+s5iff/6ZRrVh4DrwF243NzffdMNnrQpa6Zs3217VcujQIZqe9LSuw7Vr1+gnBQQUFBTQqDYkqsOcOXP4z3ruuecaGhpoVBtGrUNUVBTN0FjYbqrKu8hpXYfq6mr6SQEBRUVFNKoNiepQX1/PLimnTJly4cIFGtIMO2Xl8zIYdrZJMzQWdkjI/6p57vXXX6eV1kx+fn5iYmJGRobWL9I/c+YMzaoDVAeTydT2V8Cqc/72dc1GkpaWRpM0lqamJlU+/IYdt7TS6svJyaFZdYDqwMTHx7OrWbqfyjZu3EhTMpw//elPNEnD0fPvHbsjKCjo7NmztNIqu3v3bqcvF/xfHZjIyMgvvviCXY2U9YSrV6/Sinh0//59ukP3sNW2Wq0vv/wyTcaI2upAXxsCn5EqdWACAwOzs7PZaTnted3m5dNwly9fpjt0D6vbzp07vXmi5zd16FkzXW+p3qlvvvmG7gCdQR0MiR32fCN4pv8b/KMOKmlfh8GDB692oa8VxGeEOnQKdQBP2tchJSXlqRFuQMee+ktEdljSDSK00BM0KhIREUELuYSFhdENIrSQC19/1KFTqAN44n0d+KDQgQMHaCEX/qk5HaGFnqBRkadeTMXf+bIjtJALH0EdOoU6gCfeP+/AFxNCHWTjj3XIyMigaXlUWVlJd4DOoA7GYzabvXyX0NmzZ9N99KJVHUJDQ71/G4K5c+fS3cCj9nUYN25ckQt9/QRfTAh1kEpWVhbfAp06c+aMzu9+3vN1iIiIeO2112w2G83JC6yd27ZtM/BLp3oKnncwEnalsHv3bp/erYMFgv0q1e3vSnu+Dvwlxl1QU1ND3wI60L4O06ZNc7jQ10/wxYRQB0l0+WUUuv0Dds/XYcSIEcld4v4h7iCE5x2MZMqUKbTr+2jgwIH0LTSm4bOS0ONQB9AT6qCS9nWYOnVqowt9/USIS3l5OV+e44NBQUG0kAv7ko/TQi6XL1/mg7TQE3zw2LFjtJxLv3792KD7O9kxZrOZL0wLudy7d48P0kIu/CbUQUKog0q8f1aSO3/+PL+Vo9EO0EIuly5dolGRo0eP0nIuYWFhdIMILeTi/nkWbfhNqIOEUAeVtK/D+PHjT7jQ17+Vn5/Pb+VotAO0kMvu3btpVCQnJ4eWc/H8xi20kMtXX31Fo274jFAHCaEOKvH+eQeF8BmhDhJCHVSCOoCeUAeVoA6gJ9RBJW11qDYQPiPUQUKog0oWLlzIjyWDcTgcnb7HIegPdVBJVFSU1WqtMJyPP/5Ylc+z8CuoAwCIoQ4AIIY6AIAY6gAAYqgDAIihDgAghjoAgBjqAABiqAMAiKEOACCGOoDA8uXLbTbbxYsXly5dSkPgf1AH+I20tDT+bpQFBQW7d+92Op12u33VqlV4HYQfQh2AJCcnnzhxgnchJiaGD0ZFReXm5j58+LCuri4nJ6dv3758HPwB6gAB8fHxhw8fZl0oLCwUfpRraGjomjVrbt682dzcnJeXN2TIELoBDA118GuDBg3in11mtVqnTZtGox3LyMjgn4HIzi9YU2gUDAp18FO9evXavHmz0+msqKhYsGABjXpn4cKFZ86cYY344osvXnrpJRoFw0Ed/NHq1avr6urYlcLKlStpyHezZs0qLi5mjWD/Zf9Po2AgqIN/SU9P//HHH+vr69etW2cymWi0G9i5AzuDYI1gZxPsnIJGwRBQB38xb968srIydhhv3749IiKCRntIfHx8QUEB++Y2my0jI4NGQXGog/ElJSXxS4A9e/YMGzaMRjUwZMiQvLy85uZmds2yZs0az5+RBfJDHYxszJgxBw8eZF04evTohAkTaFRjffv2zcnJqaure/jwYW5ublRUFN0AqkEdjMlisfzjH/9gXSgtLZ0xYwaN6shsNq9atcput7N1+PDDD4cPH043gDpQB6Nh5/ObNm1yOByXL19+7bXXaPTZWbp06cWLF1kj9u7d++KLL9IoqAB1MBT26/ru3bu3b9/+y1/+QkNy+OMf/1hSUsIaUVhYmJycTKMgN9TBIJYsWXLlypXGxsa//e1v0r5iKiUl5dixY6wRVqt13rx5NAqyQh2U98orr/C/XNyxY0dkZCSNSmzixIkHDhxgK3zhwgUWNRoF+aAOCps0aVJRURE7zD7//PORI0fSqCJGjRrFX+Jx7do12a6DgEMdlMQOrX379rFD65tvvklMTKRRBVkslq1bt9bX19+5c2f9+vXh4eF0A0gAdVBMVFTUzp07WRfY1YRhXt0QFha2bt26n376qaGh4b333hs4cCDdAM8U6qCM4ODgnJycpqamK1euLF68mEaNJSsr6+rVq6x97KJj9OjRNArPCOqghjfeeIP9aq2pqXnzzTdpyLhY+/hLQg4ePKj0dZPqUAfZLVq0yGaztbS0bNy4MSQkhEb9wNy5c0+ePMmfW5k+fTqNgo5QB3nNnDmztLSUHR75+fnR0dE06meSk5MLCwvZRmCb4tVXX6VR0AXqIKOJEyf+85//ZIfEgQMHcPnNjB8/fs+ePWyDVFRUvP766zQKGkMd5DJ8+HB+GBw/fhxvyvaUoUOHfvDBB62trVVVVX/961+DgoLoBtAG6iCLiIiIvLw81oVz586xS24ahXYiIyM3bdr04MED/ib6Pf5ONtAGdXj2zGbzhg0bGhoaKisr09PTaRQ8CgkJeeutt27cuOFwOHbs2NH2ARzQg1CHZywzM/PWrVvs1yA7VaYh8MWKFSsuXbrEzrk+/fTTsWPH0ij0BNThmVm4cOF//vMfdhWdm5vbq1cvGoUuYRvz+++/Z4348ssvk5KSaBS6B3V4BlJSUk6dOsV25V27duGvhnvQzJkzjx8/zjbst99+O3v2bBqFrkIddJWQkMD/9f7w4cNxcXE0Cj1q0qRJ/IP/zp49u2jRIhoF36EOOomJiWEXxvzX2pQpU2gUNBMbG/vJJ5+wDW6z2brzoT7+DHXQXJ8+fd5//322m164cCE1NZVGQReDBw/evn17U1PTrVu33nnnHTy/4xPUQVtsj/z555/tdvuyZctoCHTHAv3uu+/W1tayx2Lz5s1++2fpvkIdtJKRkVFdXf3gwYO3336bhuCZMpvNb775Jn8T/fz8/BEjRtAN0AHUoee9+uqrP/zwA9sFt27dijc7klB6enp5eTl7gD7//POEhAQahXZQh5708ssvf/fdd2y3271795AhQ2gUpJSWlsb/Xfno0aPsgaNRcIM69Izx48cfOXKE7Wrsv+z/aRSkN3XqVP5yWKvViueMn4I6dBc7R2BnCnz3wq8gRU2YMGH//v3sQWRXHHipSxvUoevCw8O3bt3KdqkffvgBb0xiACNHjuQfPlpZWZmdnR0YGEg3+CvUoYvefvvt+/fvV1dXZ2Rk0BAYwoABA7Zs2VJfX19TU7Nhw4YXXniBbvA/qIPPli1bZrfbHz16tHbtWhoCw+nVq9c777xz+/btxsbG999/f9CgQXSDP0EdfMauJrZt29anTx/6GgwtMzPzv//9r3++DxXqAABiqAMAiKEOACCGOgCAGOoAAGKoAwCIoQ4AIIY6AIAY6gAAYgasQ0hIyKhRo+LUZLFYzGYzzQS8w7ZYREQEbUHVxMbGhoeHy/mKL6PVobCwsLW19ReVORwOfF6L9/r161dbW0vbTk1Op7OiooLmIxND1WHlypVsQ9MmV1lDQ0NYWBjNCjw6f/48bTXFffXVVzQlaRiqDpWVlXxD22y2b9VUV1fHpzB//nyaFXSMXVC0/T6wWq20EZXCVpuv/61bt2hW0jBUHW7cuME39IoVK2hINWx34VPAO9x7IyYmhm8uRtGzLRY4vv7sFwMNSQN1kAvq4BPUQVOog1xQB5+gDppCHeSCOvgEddAU6iAX1MEnqIOmUAe5oA4+QR00hTrIBXXwCeqgKdRBLqiDT1AHTaEOckEdfII6aAp1kAvq4BPUQVOog1xQB5+gDppCHeSCOvgEddAU6iAX1MEnqIOmUAe5oA4+QR00hTrIBXXwCeqgKdRBLqiDT1AHTaEOckEdfII6aAp1kAvq4BPUQVOog1xQB5+gDppCHeSCOvgEddAU6iAX1MEnqIOmUAe5oA4+QR00hTrIBXXwCeqgKdRBLqiDT1AHTaEOckEdfII6aAp1kAvq4BPUQVOog1xQB5+gDppCHeSCOvgEddAU6iAX1MEnqIOmUAe5oA4+QR00hTrIBXXwCeqgKdRBLqiDT1AHTRmzDqWlpQVqunXrFp8C6uAN9zrs3buXNqJS9u3bx9cfddBWWx0MAHXwhnsdVIc6aAt18Deog6YMVYfExMRko4iOjqZZQcdCQ0Npe6lv8uTJNCtp4NxBUjh38AbOHTSFOkgKdfAG6qAp1ME3Fy9eLCoqunfvHn2tGdTBGzrU4fHjxydOnDh9+rTT6aQhbaAO2tK6DiUlJYGBgewHDR06tLGxkUa1gTp4Q4c6pKWl8Z+1YcMGGtIG6qAtreswe/Zs+kkBAeXl5TSqDdTBGzrUITw8nP+shIQEGtIG6qAtrevw9ddfm81m9oOio6Nx7iADHerAfyWYTKZVq1bRkDZQB21VVVXRltaM3W4/dOhQc3Mzfa2ZxYsX06ygYxaLhbaXloqLi8vKyugLzdTU1NCspGGoOmzZsoW2tOJaW1v79+9PswKPKisraaspzmq10pSkYag6sNO/0tJS2tgqS01NpSlBZ4YPH15fX08bTlnXr18PCQmhKUnDUHVgWCAiIyMH9ZCxY8fSo+cRe2jpDt02cODAtqfBwEuhoaHsEoO2YLexK0d6XD1677336A7dFh0dHRwcTJORidHq0LPaXl3r2Y8//kh3APV98skn9Lh6tHbtWrqDcaEOnqAOfgh1aIM6eII6+CHUoQ3q4Anq4IdQhzaogyeRkZG0L3hUVVVFdwD1HThwgB5Xj3Jzc+kOxoU6eDJr1izaFzxqampiZxl0H1Ccl39xa7fbTSYT3cegUIcOxcTEPHr0iPaFzvz73/+W8N+rwVfLly9vbW2lB9Ujp9M5f/58YwcCdRAYNmzY/v37HQ4H7QjeuXfvXl5eHn0LUM26devOnTtHj6XXSktL1X0D9E6hDgLJyclVXXLt2jX6FqAam81Gj6KPjh07Rt/CcFAHABBDHQBADHUAADHUAQDEUAcAEEMdAEAMdQAAMdQBAMRQBwAQQx0AQAx1AAAx1AEAxFAHABBDHQBADHUAADHUAQDEUAcAEEMdAEAMdQAAMdQBAMRQBwAQQx0AQAx1AAAx1AEAxFAHABBDHQBADHUAADHUAQBEAgL+H1WxBnLiG08/AAAAAElFTkSuQmCC;" vertex="1" parent="WIyWlLk6GJQsqaUBKTNV-1">
          <mxGeometry x="530" y="262.35" width="131" height="120.55" as="geometry" />
        </mxCell>
        <mxCell id="14brt2lEtJcqYIxQrarm-16" value="Star (Server - Client 가 이런형태)&lt;div&gt;&lt;br&gt;&lt;/div&gt;&lt;div&gt;장점: 중앙노드집약.&amp;nbsp; 대부분의 데이터에러를 중앙 노드에서 처리할 수 있다.&lt;/div&gt;&lt;div&gt;각 단말에 문제가 생겨도 다른 단말이 영향을 받지 않음.&lt;/div&gt;&lt;div&gt;단점 : 중앙노드 마비되면 네트워크 자체가 마비.&amp;nbsp;&lt;/div&gt;" style="text;html=1;align=left;verticalAlign=middle;whiteSpace=wrap;rounded=0;" vertex="1" parent="WIyWlLk6GJQsqaUBKTNV-1">
          <mxGeometry x="500.5" y="410" width="189.5" height="150" as="geometry" />
        </mxCell>
        <mxCell id="14brt2lEtJcqYIxQrarm-17" value="" style="shape=image;verticalLabelPosition=bottom;labelBackgroundColor=default;verticalAlign=top;aspect=fixed;imageAspect=0;image=data:image/png,iVBORw0KGgoAAAANSUhEUgAAAWsAAAEyCAIAAACzpWYQAAAAAXNSR0IArs4c6QAAAARnQU1BAACxjwv8YQUAAAAJcEhZcwAADsMAAA7DAcdvqGQAAAASdEVYdFNvZnR3YXJlAEdyZWVuc2hvdF5VCAUAABw+SURBVHhe7d15WxRX2sfx560IRImoiKgIimBIMDIS3BiIGkZURtwQibjv+y44jKgE3BBBiAsGBzTEbcQVo0FFIIyAoGgcUKBBZPG5x74vxklaaJquQ52q3+cPL8+57G6qqPpyuqWr/68HAIClUBAAsBwKAgCWQ0EAwHIoCABYDgUBAMuhIABgORQEACyHggCA5VAQbbKzsxs2bNgXcho6dKitrS1vCagbCqJBa9asaWpqeicz+vpXrlzJ2wMqhoJojb+/f0tLC5+IMmtubh44cCBvFagVCqI1cXFxxjOwqqrqn3IqLi42bkJCQgJvFagVCqI1x44dM55+Fy5c4CnZrF692rgJZ86c4SlQKxREa1AQEAkF0RoUBERCQbQGBQGRUBCtQUFAJBREa1AQEAkF0RoUBERCQbQGBQGRUBCtQUFAJBREa1AQEAkF0RoUBERCQbQGBQGRUBCtQUFAJBREa1AQEAkF0RoUBERCQbQGBQGRUBCtQUFAJBREa1AQEAkF0RoUBERCQbQGBQGRUBCtQUFAJBREa1AQEAkF0RoUBERCQbQGBQGRUBDpLVmyhP/2noYLMnXqVP4bqAYKIrEFCxYUFBTU19c7OTnxlKYLcv/+/cLCwtDQUB6DCqAgUpo3bx6dTnSOHThwwM3NjWff03BBnJ2dk5KSaD49Pd3T05NnoVuhIJKZPXv23bt36SxKTEz08PDg2Q9o/nWQiRMn5ubmtra2btu2jaeg+6Ag0pgxY8bt27fpvEpOTvby8uLZP9DJK6lr1641GAz5+fnTp0/nKegOKIgEpk6deu3aNTqj0tLSRo4cybMfoZOCkMGDB6ekpNA/O3XqlLu7O8+CWCiIqgUFBV25coVOktOnT/v6+vJsu/RTECPaRfS0rqmpacuWLTwFAqEgKkXP9ikBdBadPXt27NixPGsGvRXEaMOGDQ0NDXl5ecHBwTwFQqAgquPv75+VlUXnz7lz5+jvPGu2toJUVFQckdPNmzeNm2B+QYirqys9y6Nb0Z9u//v/U6AcFERFaK2RkZFB5wAtH2gNwrOd1FYQDehUQYxoDUIrkTdv3tCqhKdASSiIKowePfr06dN0zly5coWe2POsRXReEKPNmzc3NTXdu3evizsTOoSCdLORI0ca197Xrl2zym9tjxgxIkArvvjiC96qznN3dz958iTt2OPHj7u4uPAsWBsK0m28vLySk5PpEL99+/aMGTN4tsuwBvnQ9OnTHz58aDAY1q1bx1NgVShIN/Dw8EhMTKQz5O7du7Nnz+ZZK0FB/mjbtm2tra25ubmTJk3iKbASFEQoNze3AwcO0Lnx4MGD8PBwnrUqAQWpqKi4dOkS/cljxVirIISqnZ6eTveZlJQ0cOBAnoUuQ0EEGTx4cFxcHB3BhYWFkZGRPKsApQtSWlras2dPeqB+/frV1dXxrDKsWBAjerZI+7+mpmbVqlU8BV2DgijOyclpz549TU1N//rXv353LQ8lKF2Q5ORkfqQePYz/f6QcqxfEaOfOnXTnt27dCgwM5CmwFAqioD59+kRHR9fX15eVla1YsYJnFaZ0QfLz83v16kUP5ODgUFtby7PKUKggxMvLy/irN4mJiR9eXQU6CwVRhL29/Y4dO2i1/OzZs7Vr1/KsEIcPHzaefsqprq5OTU01GAw8Vgw9Cm+VMmbNmvXrr79WVVUtX76cp6CTUBArs7Oz27JlCx2Uv/3228aNG3lWoNDQUD7/5NeV3wcxH60T6bGuXbtmwXsIAAWxpvXr1z9//px+RG/dutX4cqN4NjY2+/btM56BUouLi+NNUp63t3dmZiY96MGDB/v168ezYAYUxDpWr15dUVFRV1cXFRXl4ODAs92EIjJw4EAP66EllfGsbp+vry/foMucnZ15YwSaO3duSUnJy5cvBbzgrRkoSFfRU+jS0tLGxsaYmBhHR0ee1ZYXL15wJNrVv39/voG0KL70faRtuXr16rhx43gWPg4FsdyiRYuKiopaWlr27t3bLT8zhdFPQYxGjRp1/vx52qL4+PhuX1GqHApiiW+//TY/P994hA0ZMoRntUtvBTEKDw8vKyurrKxcuHAhT8EfoCCdExYWlpeXR2fLoUOHhg0bxrNap8+CEDs7u9jYWNq0S5cu+fn58Sx8AAUx18yZM+/cuUMH09GjR/X2YSVmvpI6YMAAvoG2jB492njFyf3799vb2/MsvIeCdCwkJMR43b3jx4+L+Q0FVfnss89aWlreJ6IDZl4LWlL01PXpe/QXngIUpH3BwcE5OTl0bpw4ccLHx4dn9aRv374PHjwwBqJDdHYNGjSIb6lFtAChZQhtKS1JaGHCs/qGgpg2efJkeupLx8qZM2e++uorntWZhISEzr77trGxMSkpaejQoXwXWuTn52c8NmJjY+3s7HhWr1CQ3wsMDMzOzqbjIzMzc/z48TyrS0+ePCm3iB7228KFCysrK8vKyhS6zossUJD/ouPe+KvNP/74Y0BAAM8CfISDg0N8fDwdMOfPnx81ahTP6gwK8h/0PIWerdChcPHiRVwIDzpl3LhxV69epYMnJiaGp/RE7wXx8fExXtGbDoIpU6bwLEAnLVmy5OXLlyUlJXPnzuUpfdBvQby9vVNTU6kdN27cwOe/Q9f169fv4MGDdETRc2E6unhW6/RYkBEjRiQlJdF3Ojc3d+bMmTwLYA3+/v7Xrl2joys6OpqnNE1fBXF3dzdewisvLy8sLIxnAaxt+fLl1dXVv/7666xZs3hKo/RSEFdXV+PL5vn5+RERETwLoBgnJyfjpwJlZGR4eXnxrOZovyDOzs779u1rbW0tKirCmyxBsMDAwFu3blFHdu7cyVPaouWCODo6xsTENDY2lpSULFu2jGcBhFu1alVNTU1hYaEVP95UJbRZEAcHh6ioKIPBUF5ejs8WAjUYOHCg8fX79PR0Dw8PnpWf1grSs2fPbdu2vXr1qrKyEh+2DGozadKk3NzclpYWOkp5SnLaKYiNjc2mTZtevnz573//e/PmzXjLE6gW/WyjBfLDhw818ItIGikIfUuePXv2+vXrHTt24BowoH4uLi7Hjx+nJzUnT550d3fnWQlJX5CVK1c+efKkvr4+Ojq6T58+PAsgg6CgoHv37jU1NdGqmadkI3FBli5d+vjxY9r7e/bswUefgrw2bNjw5s2bvLy84OBgnpKHlAWJjIwsLCykFeD+/fu1fVEs0Ak3N7e0tDQ6pOlPV1dXnpWBZAUJDw83XnQvISFBrh0N0CFag9y/f7+hoYFWJTyletIUZM6cOfSMkdpx5MiR4cOH8yyA5mzZsqW5ufnu3btBQUE8pWISFCQ0NDQ3N5facezYMQ2/vwCgDf2MPHXqFB3zKSkpLi4uPKtKqi7ItGnTrl+/TvsxNTV15MiRPAugDyEhIfn5+QaDYe3atTylPiotyF/+8pd//vOf1I7Tp0/jsvqgZ9u3b29tbaVl+MSJE3lKTVRXENpNxs8Hy8jIGDNmDM8C6Jinp6fxOr5JSUlq+4x3FRXE39//3LlztJuysrImTJjAswDwXmhoaGFh4evXr1X1ZlEVFcTe3v6nn376+uuveQwAf7Br1y5VXcxZ1a+kAoDKoSAAYDkUBAAsh4IAgOVQEACwHAoCAJZDQQDAcigIAFgOBQEAy3WiIC4uLlOnTo2U07fffuvv74+LMIPSbG1t/fz85s+fz0eebGbMmDFs2DDeGDOYW5Bx48Y1NDS8k9z9+/dxNWZQDuXjxo0bfLTJzPxfnDe3IC9evOD7ltzRo0d5kwCsLSoqio8zyTU3N5v5JmCzCuLm5sZ3/O7dqVOn0iSUkZFh/PpLSkp4qwCsrby83HiY5ebm8pEnm8rKSuMmhIeH81a1y6yCeHt7G++U9O7dm2el4urqavz6nz59ylMA1kZHl/EwW7x4MU/J5vLly53aBBQEwGpQENNQEABzoCCmoSAA5kBBTENBAMyBgpiGggCYAwUxDQUBMAcKYhoKAmAOFMQ0FATAHCiIaSgIgDlQENNQEABzoCCmoSAA5kBBTENBAMyBgpiGggCYAwUxDQUBMAcKYhoKAmAOFMQ0FATAHCiIaSgIgDlQENNQEABzoCCmoSAA5kBBTENBAMyBgpiGggCYAwUxDQUBMAcKYhoKAmAOFMQ0FATAHCiIaSgIgDlQENNQEABzoCCmoSAA5kBBTENBAMyBgpiGggCYAwUxDQUBMAcKYhoKAmAOFMS0DwuSl5f3i4QePnxo/PpREFBOW0HKy8v5yJNNTU2NcROUKojsUBBQTltBNAAFMQ0FAeWgIKb169cvXCtCQ0N5qwCsjY4uPs7k5+npyVvVLqxBAKwGaxDTUBAAc6AgpgkoSFVVVWxs7IkTJ1paWnhKGSgIKEdAQbKysqKjoysqKnisGMkKMmrUKONj7d27l6eUgYKAcpQuyJkzZ2xtbemBXFxcamtreVYZkhWk7RfVpk+fzlPKQEFAOUoXJCQkhB+pR4/79+/zrDIkK8i0adPogezs7E6dOsVTykBBQDlKF+TmzZuffvopPZCvr+/bt295VhnWLMiQIUNaW1v5jhVz69atsrIyHiimuLiYtwrA2kpLS/k4U0xlZeXVq1ebm5t5rJiwsDDeqnaZVRAi4NwWY//+/bxJANa2Zs0aAT9rBaipqXFycuKtape5BRk+fDj1lcpHO8gq+CvtCP9ra2hoaDh37pzxhSgAhXz//fcGg6GlpYUPuy7jM6Ej/K+7jM7xFy9eBAYG8vZ0xNyCWN2PP/7Im96uJUuW8A0A9MfZ2ZnPhHY9fvyYbyAcCgKgXijIR6EgAB1CQT4KBQHoEAryUSgIQIdQkI+6efMmb3271q9fzzcA0J9BgwbxmdCuJ0+e8A2E656C9OrVy8xfiblz5w7fBkB/IiIi+ExoF51Nrq6ufBuxuqEgn3zySWpqKm96R2jXrF69mm8JoCe+vr5v3rzhM6EjBQUFDg4OfEuBRBckIyOjs29Mbm1tffTo0e7du/kuALTuq6++un37dmevdGEwGLKzs/kuRBFdkJycHNo1FkhMTOS7ANC6CRMm8HHfSdevX+e7EKXbXkkFAA1AQQDAcigIAFgOBQEAy6EgAGA5FAQALIeCAIDlUBAAsJyKCmJjY7Nnzx4eAIApEyZMGDt2LA9UQEUFmTdv3rt37yIiIngMAH+Ql5f3ww8/8EAF1PUsJiYmprm52dfXl8cA8IHvvvvu5cuXgwcP5rEKqO51kMzMzPz8fOPH6gBAG+PHOc6dO5fH6qC6gjg6OhYXF6enp/MYAHr06Nu3b3l5uQrfX6q6gpDx48dTa3fu3MljAN1LS0srKir65JNPeKwaaiwIWbx4MUVk5syZPAbQscjISDodvvnmGx6riUoLQuLj42tra729vXkMoEvu7u51dXUxMTE8Vhn1FoRcvHjx559/5gGALmVnZ9++fZsH6qPqgri4uFRUVKSmpvIYQGc2bNhAz1/U/PsNqi4ImTRpEu3BjRs38hhANygcdPCr/ANP1F4Qsnr1atqPwcHBPAbQh9zc3PPnz/NArSQoCElMTPztt9/c3d15DKB1e/bsqa2tHTZsGI/VSo6CkBs3buTk5PAAQNOCgoJo3b1gwQIeq5g0BfHw8Kiqqjp8+DCPATSqZ8+excXFsvwHgjQFIdOmTaMwr1y5kscAWnT06NGysrI+ffrwWN1kKgjZvHkzRWTixIk8BtCWsLAwOsLphyWPVU+ygpC0tLQnT54MGjSIxwBa4eLiQk/V4+LieCwD+Qpia2t77969Cxcu8BhAK86ePfvLL7/wQBLyFYSMHDnSYDDs37+fxwDyW7lyJT1/GT9+PI8lIWVByJw5c2h3R0ZG8hhAZvRDsbW1devWrTyWh6wFIVFRURSRcePG8RhAWjk5OZcvX+aBVCQuCMnIyCgqKurbty+PASS0a9euxsZGLy8vHktF7oI4ODgUFBT84x//4DGAbAICAmgpvWzZMh7LRu6CED8/v5aWlt27d/MYQCoPHz6U+qrA0heELFiwgCoeFhbGYwBJHDhw4Pnz5wMGDOCxhLRQELJ3796GhoZRo0bxGED1QkND6SffrFmzeCwnjRSEZGdn5+XlqfBi1gB/1L9//2fPnh06dIjH0tJOQZydnUtLS0+ePMljABWjA7WgoMDW1pbH0tJOQUhgYCAtC2X8tRzQFeOHmWjjDaKaKghZvnw5fW/++te/8hhAZTw9PRsaGqKjo3ksOa0VhBw8eLC6unrEiBE8BlCTCxcuXL9+nQfy02BByNWrV2/dusUDANXYsmULrZF9fHx4LD9tFmTo0KHPnz9PSkriMYAKjB07lvKxZs0aHmuCNgtCpkyZQt+tdevW8Rigu929ezczM5MHWqHZgpD169dTRIKCgngM0H327t1bXV3t6urKY63QckFISkrKs2fPtPdtA7kEBwfTD7P58+fzWEM0XhCSm5t75coVHgAI17t379LS0uTkZB5ri/YL4uXl9fr164SEBB4DiEUL4ZKSkk8//ZTH2qL9ghDjW5iWLl3KYwBR6JkLHXsa/tRnXRSEbN++nb6R/v7+PAZQnpub26tXr2JjY3msRXopCDl9+vTjx4+lvhYDyCUrK+vnn3/mgUbpqCC9evV68ODB+fPneQygpLVr19Kyd8yYMTzWKB0VhIwePfrt27faXlWCGvj4+FA+Nm/ezGPt0ldBSHh4OH1rIyIieAyggBs3bujkYxV1VxDy97//vbm52dfXl8cAVrV79+76+npPT08ea5oeC0IyMzPz8/O1+l/00I0mTpxIi9xFixbxWOt0WhBHR8fi4mKpr7IPKmRnZ1dYWKirS23qtCBk/Pjx9LNi165dPAbosiNHjjx9+rR///481gH9FoQYL1cp++X2QSVmz55Nh9OMGTN4rA+6LgiJj4+vq6vz9vbmMYBFnJ2dX7x4ocO3X+m9IOTSpUua/8VBUFp6evrDhw95oCcoSI8hQ4bQc9fU1FQeA3SS8RMCAgICeKwnKMh/TJ48mY6AjRs38hjAbJ9//nlTU9POnTt5rDMoCFu9ejVFRMPvwgaFXLlyJScnhwf6g4L8V2Ji4r1792xsbHgMYB49vxKPgvwPDXyOKYBIKAgAWA4FAQDLoSAAYDkUBAAsh4IAgOVQEACwHAoCAJZDQUAXbOTEX72KyVcQOzu7T+REXzlvA4hia2sbGxtrMBjq5URfeVZWlpp/0VGmggwYMODy5cvvpNXS0nL48GF7e3veHlAYJfvRo0e892VWV1fXu3dv3iqVkaYgtAdra2t5j8pMn1eR6BYBAQG80+Wn2o+ekaYgiYmJvC/lFxoaylsFSlqxYoVxh1dXV3vLKSIiwrgJN27c4K1SGWkK0vb8JTk5mZ7OyKgtgvjQPDGMV2wgL1++5CnZtC2jcnNzeUplpCnIlStXjLvy4MGDPCWb+Ph44ybs3buXp0BJKIgAKIg4KIhgKIgAKIg4KIhgKIgAKIg4KIhgKIgAKIg4KIhgKIgAKIg4KIhgKIgAKIg4KIhgKIgAKIg4KIhgKIgAKIg4KIhgKIgAKIg4KIhgKIgAKIg4KIhgKIgAKIg4KIhgKIgAKIg4KIhgKIgAKIg4KIhgKIgAKIg4KIhgKIgAKIg4KIhgKIgAKIg4KIhgKIgAKIg4KIhgKIgAKIg4KIhgKIgAKIg4KIhgKIgAKIg4KIhgKIgAKIg4KIhgKIgAKIg4KIhgKIgAKIg4HyuIvb197969HRwc+vbt6+jo6OTkNGDAgEGDBrm4uLi6urq5uQ0bNmz48OEeHh6fffbZ559/7u3tPXLkyFGjRv3pT3/y9fX18/MbO3bs+PHjJ0yY8Oc//zkwMHDixImTJ08OCgqaMmVKcHDwtGnTQkJCQkNDZ86cOXv27Llz54aFhYWHh0dERERGRi5cuHDx4sVLly5dvnz5ihUr6Kxbu3btunXrNmzYsGnTpi1btmzdunXHjh27du2KioravXt3TEzMnj17YmNj9+/f/91339FGHThw4NChQ0eOHDl69OixY8dSUlJSU1PT0tJOnDhx6tSp9PT0H3744ezZs5mZmVlZWefPn8/Ozr5w4cKlS5foe3r16tWcnJzr16/funWLTpI7d+7cvXv3l19+ycvLe/DgwaNHjwoLC4uKioqLix8/flxaWvrkyZOKiopnz55VVla+ePGC0lBVVfXq1auampq6ujr6C+/T91AQAVAQcT5WEDqFjPMKaW5ubmpqamxsbGhoMBgMdKa9fv26urqazj06teg8pLPx6dOn5eXlZWVldJbSuUpnLJ23BQUF+fn5dCbT+UxnNZ3bdBzfvn375s2bdM7Tl03n/+XLly9evEhFoC5QHagRVIqMjIwzZ85QO6gg1BGqyfHjx5OTk5OSkhITE6k1VJyEhATaIXFxcfv27aMeUZX+9re/RUdHU6d27ty5fft2Khf1a+PGjevXr6eirVmzZtWqVdS4ZcuWLVmyZNGiRZS/BQsWUAfnzZtHTZwzZ86sWbN4n76HggiAgojzsYKMHj3666+/pmPF39+flhK0oKBlBS0uaN7Hx+fLL7+kRQctPWgB4unpSSsRd3d3WpjQ8oQWKbRUcXZ2pjULLV5oCUMLGVrO0KKmZ8+ednZ2NjY2/Bi6hIIIgIKI87GCgEJQEAFQEHFQEMFQEAFQEHFQEMFQEAFQEHFQEMFQEAFQEHFQEMFQEAFQEHFQEMHaCtLa2lojJ4PBYNwEFKSr2grS3NxcLyf6yo2bgIKI0VYQDUBBuqqtIBqAgogxZsyYKK1YtGgRb5XKSFOQb775JlIrfH19eatASdOnT/9JK+Li4nirVEaagiQkJNBCThtWrFjBWwVKwrMYAfAsphvgWYwYKIgAKEg3QEHEULogLS0t8fHxjo6OixYtor/zrDJQkK5SuiD19fVhYWH9+/ffvn07TykGBRFD6YIUFRXxI/XokZ2dzbPKQEG6SumCfPhKVV5eHs8qAwURQ+mCFBQU8CP16HHixAmeVQYK0lVKF4SWo8YHsrW1RUG0QemCtLa20rrV3t7ew8MDz2LUTumC0BEQEhLi5ua2adMmnlJMbGwsbxUoaerUqbzHlUQd4b8p6ciRI7xVKiNNQVJTU3lfyi88PJy3CpTUu3fv2tpa3umSc3Jy4q1SGWkK0r9//7q6Ot6dMissLORNAuU5OjqmpKTU19e/tRIzVxxNTU18g6558+YNrb5dXFx4e9RHmoIQBweHs2fP0tHQaCX83e4I/+suq6mpoecvOr/yoOzoBwAfFu368ssv+QZaJ1NBrK7tjY/toH/D/xoABfkDFKQDKAh8CAX5HRSkAygIfAgF+R0UpAMoCHwIBfkdFKQDKAi0sbW1raqq4iOjXQEBAXwbrdNvQezs7NouGtaOt2/f8g1A9+bOncuHRUe+//57nfynm34LkpKSwt/tjuzatYtvA3o1ZMiQ+fPnm7NobZOQkODl5dWrVy++C43SXUFo6UHPUePi4sx/I0Nra+vu3bu9vb3ptnwvoDPmLFdNWrlyJd+FRumuIG5ubvy97TwPDw++F9CZdZby8fHhu9Ao3RXEwcHhW0vRbfleAOA9/b4OAgBdh4IAgOVQEACwHAoCAJZDQQDAcigIAFgOBQEAy6EgAGA5FAQALIeCAIDlUBAAsBwKAgCWQ0EAwFI9evw/mVjwYp//GOwAAAAASUVORK5CYII=;" vertex="1" parent="WIyWlLk6GJQsqaUBKTNV-1">
          <mxGeometry x="740" y="262.90000000000003" width="142.35" height="120" as="geometry" />
        </mxCell>
        <mxCell id="14brt2lEtJcqYIxQrarm-18" value="Ring&lt;div&gt;&lt;br&gt;&lt;/div&gt;&lt;div&gt;양옆끼리 연결 데이터손실이 거의 없지만 회선하나 문제생기면 전체가 영향을 받음.&lt;/div&gt;" style="text;html=1;align=left;verticalAlign=middle;whiteSpace=wrap;rounded=0;" vertex="1" parent="WIyWlLk6GJQsqaUBKTNV-1">
          <mxGeometry x="716.4300000000001" y="410" width="189.5" height="150" as="geometry" />
        </mxCell>
        <mxCell id="14brt2lEtJcqYIxQrarm-19" value="" style="shape=image;verticalLabelPosition=bottom;labelBackgroundColor=default;verticalAlign=top;aspect=fixed;imageAspect=0;image=data:image/png,iVBORw0KGgoAAAANSUhEUgAAAWwAAAE1CAIAAABMfE3RAAAAAXNSR0IArs4c6QAAAARnQU1BAACxjwv8YQUAAAAJcEhZcwAADsMAAA7DAcdvqGQAAAASdEVYdFNvZnR3YXJlAEdyZWVuc2hvdF5VCAUAADDkSURBVHhe7d35P9X5/z/+778SKrSJqYZJTEolpb2pqSYtkza0aJFWbUqoSJLUpFRkhESJpFCWhLKEiDqyU2Q5me/91fP+9jE1jsM5z8d5Pp/nfv2hS/cHzjnP7fZ8PJ7nufx/QwghRAUUIoQQlVCIEEJUQiFCCFEJhQghRCUUIoQQlVCIEEJUQiFCCFEJhQghRCUUIoQQlVCIEEJUQiFCCFEJhQghRCUUIoQQlVCIEEJUQiEiWXp6epaWllPFycTERFdXF6eECBuFiDTdvXtXLpf/I2bt7e2LFi3C6SECRiEiQa6urt3d3bgtillra+vIkSNxqohQUYhI0Nu3b7mN8M2bN0/EqaGhgZuEzZs341QRoaIQkaD3799zWyB0SbBJbB49esRNwu7du7GJCBWFiARRiBCWKEQkiEKEsEQhIkEUIoQlChEJohAhLFGISBCFCGGJQkSCKEQISxQiEkQhQliiEJEgChHCEoWIBFGIEJYoRCSIQoSwRCEiQRQihCUKEQmiECEsUYhIEIUIYYlCRIIoRAhLFCISRCFCWKIQkSAKEcIShYgEUYgQlihEJIhChLBEISJBFCKEJQoRCaIQISxRiEgQhQhhiUJEgihECEsUIhJEIUJYohARvWHDhjk6OmLxjYRDZOfOnfg/IhgUIuJ29OjR2travLw8rL+RaoiYmpq2tbWlpqbOnz8fm4gAUIiI1aFDh2QyWUtLy6lTp/T19bH1Gwn3RKZPn37//n1ov3TpEj2mVyAoRMRn79697969g33y6dOn/3NDkvwxEScnJ5gDHz9+pNGNEFCIiAlsUWVlZV1dXefOnRs7diy2/kAbDqzq6en5+/vDLzx+/HjOnDnYSjSBQkQcXFxciouLYZsJDAwcP348tvZBG0KEM3PmzMTERPg1mC0GBgbYStiiEBE6Z2fn/Px82E6Cg4PNzMywVSHtCRHO1q1bYZJlMtn27duxiTBEISJcmzZtysnJgQ0pJCTEwsICW5WgbSEChg8fHhAQAL+flJQ0a9YsbCVMUIgI0bp16zIzM2GTuHHjhpWVFbYqrSdE0tPTr4pTzyQoGSKc2bNnc+lz/vz5oUOHYivhGYWIsKxatSotLQ02g/Dw8GnTpmHrAPVsgRIwoBDhuLi4VFdXV1ZWbtmyBZsInyhEhGLFihUpKSmw2dy5c8fW1hZbB0XLQwQYGhoGBQXBnyckJNjY2GAr4QeFiOYtXboURvKwxt+9e1ct31bOnTt3sVRMmDABp2rgYD48efIEZqyfn5+uri62EnWjENGkhQsXcudfxsfHw/+xVWXUE+lt165dtbW1FRUV311hRNSFQkQzYCcZGxsLGwn0QaAngq1qQiHynVGjRgUHB8OrQVhbW1tjK1ETChHWZs2aFRUVBSt0SkrKihUrsFWtGIRIUVERfP6mpiaseaOWEOEsWLCAO2h95swZbCLqQCHCzvTp08PDw2ElhlV51apV2MoDvkPk+fPn3CEGS0vLjo4ObOWHGkOE4+bm1tDQUFpaunHjRmwiqqEQYcHKyurGjRuwSWRmZq5btw5becN3iKxZswbfaciQ3NxcbOWH2kMEGBkZXb16FV4cRpRTpkzBVjJYFCL8srCwCAkJgfU1JyeH2a6P7xCJi4vT09ODNxo3blx7ezu28oOPEOEsXrwYulTwFt7e3thEBoVChC9mZmbcwbz8/HwnJydsZaKysvLbBsijioqKyMjIzs5OrHnD9+Uw+/bta25uLi4udnBwwCYyQBQi6jd+/PjAwEDYAIqKijRySRh3jbwEdHd3q3KeiJJMTEyuXbsGbxcdHW1paYmtRGkUIupkbGwMG7BcLi8rK+OvH94vXV3djIwMbjsUtU2bNuEk8W/p0qVZWVkQW56enthElEMhoh6jRo06c+ZMW1vbu3fv9u7di62aAzny888/W6jJ7NmzcbNWqKqqCv9AZZMmTRozZgxODEOHDh1qbW0tKChYu3YtNpH+UIioysDAwMvLq6WlRSaTwSqIrdICPSzMCYXKy8vxD8QMRqM3b96EyYmMjIQsw1bSNwqRwdPT0/Pw8GhoaKitrT169Ci2SpFWhQhn+fLlOTk5MDKFRYxNpA8UIoN0+PDhjx8/NjY2njhxQvK3rtDCEOHAUv7y5Ut+fr69vT02kR9QiAzYgQMH3r9///nzZ29vb0NDQ2yVNK0NEWBqahoWFgZTd/v2bTPlbk+pbShEBsDNza2ioqK9vf3s2bMaOeynKSYmJlxMKPbu3Tv8A8mBnkheXh4semmPWweHQkQpO3fuLCkpgRGyv78/bFHYqjVWrlyJOaEQbGMKHmQhAcePH+/q6nr58uUff/yBTYRCpF/btm0rLCyELSQoKOjnn3/GVm1ibm7+6dMnLib6lZaW9t3j+CRm4sSJf//9N0zprVu3tHN9+BGFSJ8cHR2hBwury5UrV2DVwVZtYmFhER4eDv2vb/mgrMbGxvPnz+NLSNTq1atfv37d2trq7u6OTVqMQuQ/rF+/Pjs7G7aHa9euafN50EuXLq0alIqKCnwJSTtx4sTXr19hVfn999+xSStRiPzL2rVruSs7obM6depUbCWkD9BZ424xFRoa+tNPP2GrlqEQQfb29qmpqbA2REREzJgxA1sJUcK6deuKi4tbWloOHDiATdqEQmTIsmXLkpOTIT5gl0IPTyOD5uXlBWtRRkbGkiVLsEk7aHWI/Pbbbw8fPoQFf+/evfnz52MrIYM1efLku3fvwhoVEhJibGyMrVKnpSECkREXFwcLOyEhYfHixdhKiDqsX7++pKSksbHRzc0NmyRN60LEzs4uJiYG4uPRo0daflCd8MrHxwdWs/T0dDU+UUiYtChEbGxsIiMjYbk+ffp05cqV2EoIb6ytrbkO75UrV0aPHo2tkqMVIQLLkruG6tmzZ73vVE4IA5s3by4vL6+rq3N1dcUmaZF4iPz666/Xr1+H+MjKyqI78aqRlZXVH3/8oaOjgzVRCGaUr68v1wuW3iF8yYaIubn5X3/9BYstNzcXdgXYStQkJSWls7Pz3LlzWBMlzJgx48GDB7BOBgUFjRgxAlvFT4IhYmpqCgsJFtXr16+3bt2KrUR93N3dYfaePn0a/rW1tcVWohxnZ+d37959/Phxx44d2CRykgqRn376KSAgoLu7u7i4WDJLSGimTZsG2cHdViM5OTkpKYlrJ8rT09PjHuvx+PFjOzs7bBUtiYSIkZGRn58fdLDLy8v37NmDrYQHT548gVWf+/+sWbNgS3BxceFKMiDQiYMIhhkYGBgo6vsniD5EYGzp4+PT2tpaVVW1f/9+bCX8OH78OHT0rK2tsf72oCzomUtphM/Ytm3bPnyjkeecqYWIQ2TYsGEnT55sbm6urq6m2zowAHtO2G1+91gM6JlXVFQEBwdjTQYOuiEXLlyAeQsdEzFevSXKENHR0Tl27FhdXV19fT3sG3V1dfEHhE/p6emJiYlY9OLo6AgbgOTPy+SbnZ0ddyEodO6456WLhfhCBDodMpkMOiCenp7SvhOfoMDc7uzsnDx5Mtb/FhcX9+zZMyyICnbs2AE968rKSmdnZ2wSPDGFyL59+2Dmtra2+vj4jBw5ElsJ/+bMmQN7SJj/WP9gypQp8At0TEotRowYwZ2jkJCQIIpb24gjRFxdXd++fcud3STt+4kLU1ZWVnx8PBZ98PLy+vTp07hx47Amqpk3b97Tp08hSvz8/AR+ZrDQQ8TFxaW4uBhm5YULF2gF1Qjuyy9lnkpbWFh48+ZNLIg67N69u66urry83NHREZuER7ghsmXLltevX0N8XLp0ydTUFFsJWwsWLIBFoOSVY2vWrIFfpmeyqNfo0aMvX74MMzYuLq73l+vCIcQQ2bRpU25uLsy1q1ev0mPZNSsnJ+fu3btYKCEiIiIvLw8Loj4LFy5MS0uDjeL06dPYJBjCChEHBwcYfsOcCg0N7euLAMKMr69vc3PzgLqBZmZm7e3t9CR9nri5uTU0NJSWlm7YsAGbBEBYIWJraxsWFibMPpu2WbJkCaT5IE5pP3z4sFwut7CwwJqo1dixY0NCQmbOnIm1AAj9wCrRlPz8/KioKCwGKDs7e9B/S0SHQoT8h/Pnz9fX1w/667ClS5dCL4buAqUlKETI95YtWwYRsGXLFqwHBbrcJSUlWBBJoxAh3ysqKrp9+zYWgwVD94aGhjNnzmBNpItChPxLUFBQdXW1Wk4L3rNnD/Ro6JmkkkchQv4fe3t72OzVeEvap0+fJiQkYEEkikKEID09vdLSUvWetz537lxIpW3btmFNpIhChKArV668f/9+1KhRWKtJYGDghw8fDAwMsCaSQyFC/mft2rU8fSk7fPhwyKagoCCsieQMLEQsLCw2bNjgIk5bt26dNWsW3QbtR9BNqKioCAkJwVrdtmzZAgklvYc29UVfX3/RokW42onN9u3b7e3tjY2NcWKUMIAQcXJyglVB7OLi4oYOHYqTRL65du0ahAivI44HDx6kpqZiIWlGRkbV1dW4tolWd3e3lZUVTlJ/lA0RU1NTfHnxW7duHU4VGTJk/fr1ME9gOIM1P6ytreFd3NzcsJauu3fvflvLRK+zsxOGojhVCikbIqtXr8bX/uefcHGKj4/nPn9aWhpOldYbNWrUhw8fLl++jDWffHx8mpqaBtRPFh3ozXHrGIiJicE1T1Ru376NE/DPP7/88gtOmELKhgh3R2+OSA8rTJ06lfv8dMOLHrdu3SopKWF2b/E3b95cv34dCymCUObWMSDSG/HByoAT8M8/St7Nh0JEe3HL1N7eHmv+wUAS3nHZsmVYSw6FiCIUIhIDw4qPHz9evHgRa1bu3LmTk5ODheRQiChCISIxERERhYWFWDBkbm4ul8u554FLD4WIIhQiUrJ161aYD5oaVhw7dqyzs3PixIlYSwiFiCIUIpIxfvz4hoaG8+fPY60JL1++jIyMxEJCKEQUoRCRjKioKI3PgeXLl8OC+PPPP7GWCgoRRShEpMHFxQXmwG+//Ya15oSGhhYXF2MhFRQiilCISICZmVlLS4uvry/WGmViYtLc3Ozj44O1JFCIKEIhIgGxsbGC+np17969sDik9IQQChFFKETEztXVFaZdaJfSpqWl9fuocBGhEFGEQkTUYG1oa2sT4NgBQg2WiJOTE9YiRyGiCIWIqN2/fz8zMxMLgQkKCqqsrJTG/RkoRBShEBGvffv2wVTb2dlhLTCGhoYymSwgIABrMaMQUYRCRKQmT57c1dV18uRJrAVp+/btsFwEG3PKoxBRhEJEpJKSkkRx/5TExMSUlBQsRItCRBEKETFyd3eH6bW1tcVawGxsbOCj7t69G2txohBRhEJEdLg7Eh47dgxrwfP19a2vrx8zZgzWIkQhogiFiOjA6EB0A4SysrKrV69iIUIUIopQiIgLdEBgSqdNm4a1SGzYsAE+9pIlS7AWGwoRRShERGTmzJkwme7u7liLSkxMTFZWFhZiQyGiCIWIiKSlpSUlJWEhNpaWlt3d3SJNQAoRRShExOLkyZNdXV3KP3lIgE6cONHW1mZqaoq1eFCIKEIhIgp2dnYwgfv378datPLz88PDw7EQDwoRRSQcIrDrvn//fqgk1NTUVFVVYSFmjx49giWVnJyMtVA9ePDAw8MD1yQKEcUkHCK5ubnQWF1d/fz58zgxKykpkcvljx8/xlrkIA1bWlqwEJ709HSZTAZrDqw/uCZRiCgm7eHMihUrEhMT4UdJSUl//PEHtooKd039nj17sBa/CRMmtLa2enp6Yi0Yc+fO5R64C3n93dpCIaKINhwTWbRo0b179+AX0tLSRPfQ7xcvXsCHx0IqDh48CItDOAeJIT5iYmLgI6WkpKxcuRJbe6EQUUR7Dqza2dn9/fff8GuwWcJUY6uwnT17Fnr+ZmZmWEtIRkZGbGwsFpozZ84cLj6ePHnyn/HBoRBRRHtChDNt2rTQ0FD45devX7u4uGCrIP3222/wOXfs2IG1tCxevBimbvPmzVgzB/ERHR0NnwHio9/nFlOIKKJtIcKxsLC4fPky/ElZWdnevXuxVWBgcqKiorCQoitXrpSXl7Nf66BPCjMWlv7Tp0+VfOw5hYgi2hkiHFNT0/Pnz3d0dHz48OHIkSMwl/EHAuDv79/Q0DB+/HispQi2zNraWphSrPk3e/bsgcYHh0JEkd4hAhthrggVFRX1fH6cqoEYO3bs6dOnm5ub6+vrPT09R44ciT/QnN9//x0mZ+vWrVhLFwzWYEpnzZqFNW964iM1NXXVqlXYqrTeIQIDYVzzRAW2DpwAXkNE7AYXIhwDAwMPD4+PHz+2trb6+vqamJjgDzShsLAwIiICC6lLTk5+9OgRFjyAhFIlPji9Q0QCKET6pEqIcHR0dA4dOvTu3Tu5XH7x4sVffvkFf8AQvG9NTY2xsTHWUgcbOSw7Po4fwyvfuXMHXhziY/Xq1dg6KBQiipibmztLxYBGuYrt2bOnuLgYZvfVq1dZns6wcuVKeFNIdqy1g7+/P+SmGgeSEB+RkZEwJ9PS0lSMD87QoUNxJZOEESNG4IQpRD0RNdi2bRs3kgwLC7OxscFW3ujp6ZWUlNy6dQtrraGrq1tRUXH58mWsVWBra9sTH2vWrMFWlVFPRBEKkX5t3LgxMzMTXh+G1vPmzcNWHsBW9OHDh9GjR2OtTTZv3gxzeNGiRVgPHMQHdzJhenr62rVrsVVNKEQUYRAiVVVVp06dSkxM7O7uxiZ+8BQiHNitPXnyBN4lPj5+6dKl2Ko+8Prw4uvXr8da+9y7d+/58+dYDMTMmTO5+Hj27Jna44PDIETkcvm1a9f8/Pw6OjqwiTciC5FPnz4NGzaMe68XL15gKz94DRHOsmXLEhIS4L2Sk5PVeAhGX18f+vOwDmGtlaysrGDGHjhwAGslQHxERETAX0F8/Pnnn9jKAwYh4uXlxb0XzAcIFGzlh8hCRCaT4TsNGXL69Gls5QeDEOEsWLCAu9wT1l0HBwdsVUFISAiEiKGhIdbaCnqsnz9/VuYUOxsbm9u3b8MigM4Lr/HBYRAiva+Qam1txVZ+iCxEvnz5Ym5uDm8E/RHYTrCVH8xChDNr1ixuPX758qWzszO2DhzEELwIgy1BFAoKChQfWu4dH8yuyWYQImFhYdx7rV69mu+Bv5pDBPrk+MK8+fr1a1JSUktLC9a80cjTWKytra9fvw7vXlhYuHPnTmxV2siRI6uqqq5cuYK11oNNCGbmf15QO2PGjPDwcPhpRkYG41s6GBgYwGr8v5WMT2VlZdC35TtBgJLXhSsbItB15HsAxoyCS7n5BtF+6dIlWPzl5eUDuhPqzZs3S0tLhw4dijUZMgQ6Gt91KqdPn87FR2ZmplrGj4PA7SokoKampucwpWLKhghYtGhRfX09BC1sA2qBH7Y/+NvqAAPp4OBgHR0dnCQNmTBhgr+/P4zgZDLZsWPH+l1U3PeaajxAKw2mpqYwD7lbnEJ8QD8f5pIG44MDnZGsrKz29nZc59Th23bQP/xtlUF3Abq9RkZGOEn9GUCIqF1+fj5OvULz58/HP5CWMWPG+Pj4NDY2NjQ0eHl59XXex9ixY6urq4OCgrAmvbi7u8NeLTY2FtYT2HQ1Gx884Y6F9SsuLg7/gDkKEQ0bPnz48ePHoUvS1tZ27ty5H68fh/55UVERFqSXadOmcb0PSGEJnzhDIaIIhUhvBw4cqKiogM4kdDq4L6rAli1bYA4sX76cKwnH2tr61q1bMGeg9wG9OfgPhQiFiCJaEiKc3bt3c/c9CQkJWbhwYX19fUBAAP6M/Ds+NmzYwDXCvCotLeX+Lz0UIopQiPQFOiC5356G09jYaGtri63aDeLj5s2bME+ys7M3btyIrd8YGRnBiObs2bNYSwuFiCKw98AZoBAfV6AIn4uLC0x7QUEB/BsTE6OFSdpj6tSpN27cgPnw4sWL7+Kjh6urK/zCjBkzsJYQJycnmLR+JScn4x8wp7EQgWG/kqflwKAX/0ZrmJqaNjc3+/n5wf9XrVr1+PFjmA8PHjzQtjztHR+bNm3C1j48efLk4cOHWEgI1//qV1tbm6Yu7NZMiIwaNerZs2c49f1pbW0V6VPpBu3u3bsvX77E4huIDwgRmBspKSmDvnmfiEyZMoV7ZEdOTk6/8cGZM2cO/P62bduwlgQY2HZ1df1vM1DCvXv3hg8fjn/JkAZCJCEhAYb6ON3KkcvlsDL11ZWVmN27d8MkL1iwAOteYFDDPQMlIyOj57CixFhZWfXEx0AfN3PhwgWZTGZgYIC1mB04cODVq1fdAzy3vaam5vbt2/gSrGggRKAPkjkoAn+IlFpMmjQJel6KR3C2trbc+RG5ublSutU7xAd3zjj0whwHdefHYcOGVVVVSePEPC8vL1zvB+j+/fv4Eqxo8sAq+VF8fHxWVhYWCkGHPyQkBDa54uJi6LxgqzhNnjz52rVrXCwOLj56ODs7w+to83Fo9ihEBGTv3r2wAcDYHmslmJubw47369evFRUVBw8exFbxUGN89IBdcWpqKhaEfxQiQvHrr792dnZ6enpiPRDjxo3z8/ODcVB1dbWHh4e+vj7+QMBgermeVF5enrrig2NtbQ0v6+bmhjXhGYWIUCQmJqanp2MxKKNGjYKBdENDQ1NTk4+Pj/JXYTJmaWnZEx9OTk7YqlYw+TATNPtoMe1BISIIhw4dgo1qljoeEzl06NCjR4/KZLL29nZ/f/8JEybgDwSgd3yocpM3ZRQXF1+/fh0LwicKEc2D7nd3d/fx48exVpP9+/e/ffsWtthLly5ZWFhgq4bAB7h69Sp8mPz8fL7jg7Nu3Tp4u2XLlmFNeEMhonmPHz9+8uQJFuq2c+dO7tx52C1DWmErQ73jY8uWLdjKxJ07d3JycrAgvKEQ0TAYesAGNn36dKz54eTkBJsTvFFERIRaBk3KgPj466+/4E1fvXrFOD445ubmXV1dMIexJvwQVoiYmZkN4ibG4mVjYwPb2OHDh7HmmYODQ3p6OrxjbGzswoULsZUHkyZN6okPzZ4Od+zYsc7Ozp77s0iDi4uLkrdQZkNYIeLt7Q1rnvacKZSampqUlIQFK/b29o8ePYL5/PDhQ7Xf7gji48qVK/Dir1+/FshlLC9fvoyMjMRC/Lhzmn19fbEWAMENZ6Kjo0tKSrThQbMnTpyQy+VTpkzBmq0lS5bEx8fD1v706VO1PNEa9vaXL1+GFywoKBDUVXAQlPCpGD87gj8Q/RkZGVgIg+BCxNDQsLCwUIN3WGFj9uzZsGYP6FmQfJg3b15UVBR8kqysLCUvlv1R7/jYvn07tgpJaGhocXExFmJ25MgRmM/MjmopSYgHVmEDg120VG9UxXn+/PmDBw+w0DQbGxvuir68vLwBdSImTpwYHBwMfwi5L8z44JiYmDQ3N4v9xjSQHTCr3d3dsRYMIYYIgFUZ5pd6z4YWDm9v7y9fvmj83I3vTJ48mfsu9s2bN3v27MHWPvzyyy898SGKq6u565I08iW3ukBvUTg7nt4EGiLA39+/vb0ddpJYS8X8+fNhbRbslR1mZmaBgYHQE6ysrISd3o8P+oL4uHTpEkxCUVGRuG7OkJqaGh8fj4XYnDt3rqWlBbp+WAuJcEMEJCQkQAdbyWf5iUV2drbwj/hA/9/X1/fz5881NTUeHh6GhobQCPkSFBQE8VFcXCzGe7tw8c3mfFn1WrFiBXxywQ4YBR0ixsbGFRUVUvp+7syZM58+fYKdOdbCNmLECE9Pz7q6OvjML1684OJjx44d+GMRghCEHpa4dkvwaUtLS8PCwrAWHkGHCFi0aBGsuydPnsRazBYvXgzTIq6z6UxNTbnBS1dXF4xxAgICoAV/JkLQpZLJZBcuXMBaDK5fv/7u3TsIdKyFR+ghAvbs2QMrsQS+54ehWXR0NBaCB2HRM3jhgm/v3r3cUz4uX75saWnJ/ZrocMfsB3TnJw1ydHSET7t69WqsBUkEIQKCg4ObmpomT56MtQj5+/s3NjYK6sL8vkB8XLx4EdbdN2/e7Nq1C1v/j4uLy6tXr+CnN27c4PuSH548fPiQvyse1QjWloaGhsDAQKyFShwhAmCpZ2ZmYiE2v//+O2x1gjqP8z/9/PPPXHyUlJT8GB+9wR4yOzsbfjMyMtLOzg5bRWLGjBnwyV1dXbEWqtjY2NzcXCwETDQhYmZmVl1dHRoairWoFBQU/P3331gIEsQH7PG6u7shPpS/7TOMMVNTU2GDvHfv3uLFi7FVDM6ePQs7ecHe/A3s378fZqworiMTTYgA7osuAZ6xpxhsnLW1tYK9VR/0mS9cuADxUVpaOri7xv/xxx9JSUmwaOBfET1mDKY3JCQEC4GZNm0aLJETJ05gLWxiChEACQIrq4jWVPio8IGFeert+PHjIT6+fv0Km5PqfXvoicTFxcHEQt/kzz//xFYBW79+PXxaYT6ZFOahBp+tO1AiCxEAIxoY1wjqfgp90dPTe/PmjQC/4Yf4CAgIkMvlZWVl/Z7hPiBz5syJjIyEjTMrK0v4Vy1ER0cr+ZQflry9vTs6OqysrLAWPPGFCMjMzBTF0fXg4GCZTDZmzBisBWDcuHFcfLx9+1a98dHb9OnTucdQv3r1SsjntlpYWEBHTFAD5N9++w3mm/AP+vYmyhCZPHlyU1MTbKJYC9Lq1athbRDO84MhPs6fP8/FB5srdywtLbkbFMFwSbDXCnl4eHz58kU4Z9AVFBRERUVhIRKiDBHA3cubv32pivT19cvLywXyyIKffvrJ398f4gM+EvuNGbZP6Pt0dnZWVVUdPnwYhnj4A8HIy8tj/xDs/wT7RRiqGxsbYy0SYg0RcPLkScgRYX6zGBISIoRTlU1MTCA+urq6NBIfvcGGcebMmZaWlrq6OlhwgjqJe+XKlbAiafysUAcHB/gYGzZswFo8RBwiIDIysqKiQmjJza0Nmj1Pn4sP2P/D/Nm7dy+2apqhoeGJEydqa2s/f/589uxZ4XztfevWLRhHYKEJY8eOlclkMPrDWlTEHSJDhw7Nz89PSEjAWgBgH1tZWfnXX39hzRxEqgDjozcdHR13d3eYS9BFCgwMFMIXbePHj4dcO3XqFNbMwe6wqKjox7u3iIK4QwTY2Nh0dHTAZoO1pt24caOsrEwjF5tDfJw7dw7mBsTHvn37sFXAYIT15s0b6LVB5mr8wqgDBw7AJ9HIF6u7du2CtxbmGSvKEH2IAO5KRyFcmbJp0yb4JKtWrcKaFYgPPz8/iI93796JIj562759O3QnYb7BmEKzN7J7/vz5vXv3sGDF0tLyy5cvor7/qxRCBMAAWy6Xz549G2tNMDIygmHtpUuXsGYCxtIQH+3t7RAf+/fvx1YRgvzNysqCKImKipo7dy62ssXdvGbz5s1YM/Ho0aP09HQsxEkiIQLi4uIKCwu5G/lpRFhYWHFxMbNhLcSHr68v7MQqKys1/ugJdVm7du3Tp09hS4aluWTJEmxl6PLlyzAY1NXVxZpnHh4eMLEzZszAWpykEyKjR48uKSnR1F1/nJ2dYW1YsWIF1nyCLo/04qO35cuXJyYmwvyEvbS9vT22MjFy5Miamho2h9igwwXTePDgQaxFSzohArg78bIfXv700091dXUMbroH8QEDt7a2tqqqKgmsfIotXLgwNjYWFij09h0cHLCVfzt27IA3ZfCAqJycHGk8pE1SIQK4NYDxyeaRkZGvX7/Ggh9jxow5c+YMxMf79+8lHx+9wcYcEREBy/TFixdOTk7YyjPoAQEs+BEQENDY2CjqG9b2kFqIgMDAwNbWVmaPKXJxcYFVnL/v57j4gCmC+Dh06BC2ahlYmqGhoTCfCwoKGNxunnvWHH9vBGM0eH0xPrziP0kwREBSUhL0FRkc44Q9SVNT07lz57BWq9GjR58+fRri48OHD6K7FRMfLCwsuMfuvX37lu9vsv39/WtqakaNGoW1+hgaGlZUVNy4cQNr8ZNmiIwfP76qqorBjTxiYmL4uAsmrLsUH32ZMGECbOHt7e0wc44ePTp06FD8gVrp6urCpn758mWs1efmzZsQggYGBliLnzRDBMD4AnZZx44dw5oH3ImGCxcuxFodID58fHw+f/4sk8koPhQwMjKCGQXdwIaGhlOnTvHRZdi8eTMsX/Ve4bl161Z4TcZfOfFNsiECuFvd8nR1prm5OfQUoL+AtcpGjhxJ8TFQ+vr6Hh4eHz9+hGXh5+c3btw4/IGa3Lt37/nz51iozMzMrLm5WTiXaKiLlEMEhISE1NfX8/H8/bi4OHXdWY+Lj0+fPkF8HD58GFvJQBw8eBBGH3K5PCgoSI1PvbaysoL9kLq+DouPj3/x4gUWEiLxEAHp32ChJm5ubrBuqX529ogRI7y9vVtaWqqrq48cOYKtZLBcXV2Li4th0cDOY8qUKdiqGhgrQfdQ9aeOHTp0CD6YWJ68NyDSDxHohkBnRI0PB/j11187OjpUvGz8u/gQ6TXgwrR169a8vDzYYsPCwmxtbbFVBQUFBSoepJ85cyZ8Hl6P0GmQ9EMErFq1Chahuq5Pe/jw4bNnz7AYOIgPLy8vGBvDSP7o0aPMLtPQNhs2bMjIyIDlHh0dreIjoLjb5apyNPT58+dJSUlYSI5WhAiAnQCsB6qfEgbDY3idwZ0TbWhoCP0XiI+amhqKDzZg+09JSYFFdv/+fVWW/u3bt6F3g8UAcecK8nFgTiC0JUQA9EirqqpUGdxOnTpVLpd7eHhgrTQuPpqamiA+IM4EeLNiafv9998TEhIgSh4/fjy4u72Ympq2tbUN4pF03KkGO3fuxFqKtChEdHR0cnJyVOlVJicnP336FAvlGBgYeHp6NjY21tbWHj9+nOJDg2BQExMTA5s0DC7Wr1+PrUpzd3f/+vWrpaUl1kqAxV1cXBwREYG1RGlRiABra2voWF68eBHrgThy5Aisf8rf+kFfX5/iQ4BsbW3Dw8NhUb58+XLLli3YqpysrCyIISyUcPXq1Q8fPgj5seFqoV0hAjZu3DiI7iVkB/yVkt/CQnycPHmyoaGhrq4Oxj48nZdNVAEj02vXrsEyLSoq2rVrF7b2hxubKPlUB25N0+xN/9nQuhABPj4+sHQHdMQ+NTVVmWvDhw8fDsNmiI/6+nqKD+EzNzcPCgrq7u6uqKhQ8vZO0LkoKyvDom8mJiY1NTWM75WpKdoYIiA6OrqkpGT06NFYKwRxIJfLYd+F9X/5Lj40crd3Mjjjxo07d+5cW1ubTCaDgScsSvzBf4GxCSxiX19frPsQFRX16tUrLKROS0PE0NCwsLBQmftKcbeWUHDiM+QFpAasWJAgkCOKV0EiWLBH8fb2bvwG/qPgMey7d++GVULBjem5E5qF+WxGPmhpiIDZs2dD/+Ls2bNY9+HZs2cPHz7E4t9gtELxITGwSzh27Bh0SaBj4u/v39cJASkpKYmJiVj825QpU7q6ury8vLDWAtobImDbtm2wx1Bw0z1YFdrb23/8Vo+Lj7q6OoiPkydP6uvr4w+IVOzfv7+8vLy7u/vSpUuTJk3C1v9jZ2cHa8727dux7gXyJTU1FQvtoNUhAmBv09HRMXPmTKx7mTdvHqwo3z0HW09PD4bNEB/Q6aX4kLxdu3bBsBdWg2vXrn13w82AgADosHz3iBJPT0/o3jK7NadAaHuIgISEhPz8/B8PhWZlZfU+aMLFR21tLcQHrCtSujMVUczZ2fnly5cQJbdv3+654gF6o5WVlUFBQVwJFixYAL8jzOcf84pC5H/PoKyoqIiMjMT6m9OnT3/+/Jm7MwXEB4yTa2pqmpqaTp069d3Oh2gJBweHZ8+eQUzcvXsX8gJaYCAMZc+5Anl5efAj7v9ahULkfxYvXgxrAwxPuJJ7nCJ0ZXV1dSk+SG/29vbJycmwekAHdtmyZfHx8WlpadB+8eLF+vr68ePHc7+mVShEEPe1HHd+YW5uLuxSjh49+vHjx+bmZi8vrxEjRnC/RghYunTp/fv3YYXJzs6Gf7mTXx0dHfHHWoZC5P8JDg6GHsf169e/fPlSW1tL8UEUmzdvXlRUFMRHd3f3rVu3sFX7UIj8S05ODqwQECLe3t4UH0QZNjY20IHV5nOUKUT+xczMzNXVdeTIkVgTQvpDIUIIUQmFCCFEJRQihBCVUIgQQlRCIUIIUQmFCCFEJRQihBCVUIgQbaEjTvjpBUyUITJUtOipd+wNGzYsOjq6tbW1TZw+f/7s7++PEyNIIgsRU1PT0tLSf0RLLpcfPHiQnkHDzPDhw2UyGc59McvOzsZJEh4xhYiRkdHXr19xpoqZ5B+JJhywD8eZLn5r1qzBqRIYMYWINHYpHG27g56mcI/gBTExMTDPxejGjRvcJAQGBuJUCYxoQgSGANysBOvWrTMWp4qKCm4Sli9fjhNG+JSYmMjN8OvXr2OT2PR0pnrfilFQRBkiS5cuxVaxKSsr4yZhxYoV2ET4RCHCAIUIUxQijFGIMEAhwhSFCGMUIgxQiDBFIcIYhQgDFCJMUYgwRiHCAIUIUxQijFGIMEAhwhSFCGMUIgxQiDBFIcIYhQgDFCJMUYgwRiHCAIUIUxQijFGIMEAhwhSFCGMUIgxQiDBFIcIYhQgDFCJMUYgwRiHCAIUIUxQijFGIMEAhwhSFCGMUIgxQiDBFIcIYhQgDFCJMUYgwRiHCAIUIUxQijFGIMEAhwhSFCGMUIgxQiDBFIcIYhQgDFCJMUYgwRiHCAIUIUxQijFGIMEAhwhSFCGMUIgxQiDDVV4jo6+sbGhqOGDFi1KhRY8aMMTY2NjExGTdu3IQJE0xNTc3MzMzNzS0sLCwtLSdPnjxlyhRra+tp06bZ2NjY2trOmjXLzs5u7ty58+fPX7BgweLFi5csWQKzaNmyZfAuK1euXLVq1Zo1a/78808HB4f169dv3Lhx8+bNTk5OW7Zs2bZtm4uLy44dO3bt2uXq6urm5rZv374DBw4cOnTI3d39yJEjx44d8/DwOHny5KlTp7y9vX18fM6cOePn5wdr9vnz5y9cuHDx4kVYuYODg//666+QkJBr166FhobevHkzLCwsPDz877//vnPnTlRUVExMTGxsbFxc3P379xMSEmDbTkpKSk5OTklJSU1NTUtLe/bsWUZGRlZWVnZ2dk5OTl5eXn5+/uvXrwsLC4uLi9+8eVNaWlpeXl5RUVFZWfn+/XuZTFZdXV1bW1tfX9/Q0NDU1NTS0vL58+fnz5/jPP2GQoQBChGm+goR2Ay4dj50d3fL5fKurq6Ojo4vX760trZ++vSpubm5sbER3reurq6mpga2yQ8fPlRVVb179w421Ldv35aUlMDWW1RUVFBQ8OrVK9iqc3NzX7x4Adt5ZmYmbKvp6emw/T99+vTx48ePHj2CUHj48OGDBw/i4+Pv3bt39+7d6OhoiI/IyMiIiAgIlFu3bt24cQM2Zsiaq1evXrly5dKlS7BhBAYGBgQEwKZy7tw5X1/f06dPQ1R5eXl5enqeOHECIgyC7PDhwxBqBw8e3L9//969eyHsdu/evXPnTkjA7du3b9261dnZ2dHRcdOmTRs2bMB5+g2FCAMUIkz1FSKLFi2C7gN0IqArAR0K6FZA5wK6GNDRmDFjBnQ6oOsBHRDohkBnBLokEydOhO4JdFKgqwIdFui2jB07Frow0JGB7gx0aqBrM2zYMJhpOjo6+B5aiUKEAQoRpuiYCGMUIgxQiDBFIcIYhQgDFCJMUYgwRiHCAIUIUxQijFGIMEAhwhSFCGMUIgxQiDBFIcJYT4h0dna2iFNHRwc3CRQiquodIjBb28Spu7ubmwQKETZ6QkQCKERU1TtEJIBChA0nJycfqVi5ciVOlcCIJkR0dHRcJMTU1BQnjPAJtj3ojEjD7t27caoERkw9kSwJmTNnDk4Y4RNse9j3Ez8azqiKhjNkEChEGKAQ0QwKETb4DpHOzs79+/cbGxsHBARgE28oRFTFIESam5vnz58PK0R4eDg28YZChA2+QyQkJATfaciQV69eYSs/KERUxSBE7O3t8c2GDKmpqcFWflCIsMF3iFy8eJF7Ix0dnYyMDGzlB4WIqhiEyJo1a3rei0JEGvgOka9fv0LvVV9f39nZGZt4QyGiKgYhIpfLZ86c+csvv0RFRWETbyhE2AgLC8M5zqeecwh5tWfPHpwqgRFNiABeb//FmI2NDU4V4dO4cePa29txpotZVVWVrq4uTpXAiClETE1NobOAM1XM4uLicJII/8zMzGBQA1HSqSa4FPuDv62y1tbW0NDQMWPG4PQIj5hCBIwdOzY7OxtWiA51gCWEC1whGPfiH6gMOlO7du3S8lsWit2nT59wzegbrKLas5RFFiLqNXPmTFzmCkFs4R8QQiHyAwqR/lGIkN4oRL5DIdI/ChHSG4XIdyhE+kchQnqjEPkOhUj/KERIDz09PWWOx3d1dVGIaIWlS5fiMleosrIS/4BovZ47nvbr0KFD+DdSp70hAruUtLQ0XOD9cXBwwD8jWgm6Febm5pALAzpTyc3NbeLEiYI9SUxdtDFEDA0N58+fHxsbi4taCTAMPnDgwKRJk/AliJYxMTHBVWHgrKys8FUkShtD5PDhw7h4BwiiBF+CaBkDAwP3wTIyMsJXkShtDBFra+ttg+Lo6IgvQQj5P1p9YJUQojoKEUKISihECCEqoRAhhKiEQoQQohIKEUKISihECCEqoRAhhKiEQoQQohIKEUKICoYM+f8BF96ByzVHJq4AAAAASUVORK5CYII=;" vertex="1" parent="WIyWlLk6GJQsqaUBKTNV-1">
          <mxGeometry x="930" y="262.9" width="137.94" height="117.1" as="geometry" />
        </mxCell>
        <mxCell id="14brt2lEtJcqYIxQrarm-20" value="Mesh&lt;div&gt;&lt;br&gt;&lt;/div&gt;&lt;div&gt;그물망 구조. 특정 노드가 장애가 발생해도 네트워크 사용에 문제없음. 트래픽도 분산가능. 링크가 많아서 비싸다.&lt;/div&gt;" style="text;html=1;align=left;verticalAlign=middle;whiteSpace=wrap;rounded=0;" vertex="1" parent="WIyWlLk6GJQsqaUBKTNV-1">
          <mxGeometry x="904.22" y="410" width="189.5" height="150" as="geometry" />
        </mxCell>
        <mxCell id="14brt2lEtJcqYIxQrarm-21" value="OSI&lt;div&gt;Layers&lt;/div&gt;" style="rounded=1;whiteSpace=wrap;html=1;fillColor=#1ba1e2;fontColor=#ffffff;strokeColor=#006EAF;" vertex="1" parent="WIyWlLk6GJQsqaUBKTNV-1">
          <mxGeometry x="9.999999999999998" y="585" width="120" height="60" as="geometry" />
        </mxCell>
        <mxCell id="14brt2lEtJcqYIxQrarm-22" value="데이터 처리 방식" style="rounded=0;whiteSpace=wrap;html=1;" vertex="1" parent="WIyWlLk6GJQsqaUBKTNV-1">
          <mxGeometry x="193.13" y="655" width="116.87" height="20" as="geometry" />
        </mxCell>
        <mxCell id="14brt2lEtJcqYIxQrarm-23" value="Process" style="rounded=0;whiteSpace=wrap;html=1;" vertex="1" parent="WIyWlLk6GJQsqaUBKTNV-1">
          <mxGeometry x="200" y="690" width="100" height="40" as="geometry" />
        </mxCell>
        <mxCell id="14brt2lEtJcqYIxQrarm-25" value="" style="rounded=0;whiteSpace=wrap;html=1;" vertex="1" parent="WIyWlLk6GJQsqaUBKTNV-1">
          <mxGeometry x="142" y="1000" width="120" height="60" as="geometry" />
        </mxCell>
        <mxCell id="14brt2lEtJcqYIxQrarm-24" value="Actor" style="shape=umlActor;verticalLabelPosition=bottom;verticalAlign=top;html=1;outlineConnect=0;" vertex="1" parent="WIyWlLk6GJQsqaUBKTNV-1">
          <mxGeometry x="188" y="1010" width="20" height="40" as="geometry" />
        </mxCell>
        <mxCell id="14brt2lEtJcqYIxQrarm-26" value="Client1" style="text;html=1;align=center;verticalAlign=middle;whiteSpace=wrap;rounded=0;" vertex="1" parent="WIyWlLk6GJQsqaUBKTNV-1">
          <mxGeometry x="172" y="970" width="60" height="30" as="geometry" />
        </mxCell>
        <mxCell id="14brt2lEtJcqYIxQrarm-27" value="" style="rounded=0;whiteSpace=wrap;html=1;" vertex="1" parent="WIyWlLk6GJQsqaUBKTNV-1">
          <mxGeometry x="288" y="1000" width="120" height="60" as="geometry" />
        </mxCell>
        <mxCell id="14brt2lEtJcqYIxQrarm-28" value="Client2" style="text;html=1;align=center;verticalAlign=middle;whiteSpace=wrap;rounded=0;" vertex="1" parent="WIyWlLk6GJQsqaUBKTNV-1">
          <mxGeometry x="318" y="970" width="60" height="30" as="geometry" />
        </mxCell>
        <mxCell id="14brt2lEtJcqYIxQrarm-29" value="Actor" style="shape=umlActor;verticalLabelPosition=bottom;verticalAlign=top;html=1;outlineConnect=0;" vertex="1" parent="WIyWlLk6GJQsqaUBKTNV-1">
          <mxGeometry x="298" y="1010" width="20" height="40" as="geometry" />
        </mxCell>
        <mxCell id="14brt2lEtJcqYIxQrarm-30" value="" style="curved=1;endArrow=classic;html=1;rounded=0;entryX=0.5;entryY=1;entryDx=0;entryDy=0;exitX=0.906;exitY=1.031;exitDx=0;exitDy=0;exitPerimeter=0;" edge="1" parent="WIyWlLk6GJQsqaUBKTNV-1" source="14brt2lEtJcqYIxQrarm-25" target="14brt2lEtJcqYIxQrarm-27">
          <mxGeometry width="50" height="50" relative="1" as="geometry">
            <mxPoint x="68" y="1060" as="sourcePoint" />
            <mxPoint x="118" y="1010" as="targetPoint" />
            <Array as="points">
              <mxPoint x="268" y="1090" />
              <mxPoint x="348" y="1150" />
            </Array>
          </mxGeometry>
        </mxCell>
        <mxCell id="14brt2lEtJcqYIxQrarm-31" value="Position&lt;div&gt;Data&lt;/div&gt;" style="text;html=1;align=center;verticalAlign=middle;whiteSpace=wrap;rounded=0;" vertex="1" parent="WIyWlLk6GJQsqaUBKTNV-1">
          <mxGeometry x="258" y="1110" width="60" height="30" as="geometry" />
        </mxCell>
        <mxCell id="14brt2lEtJcqYIxQrarm-32" value="NIC Card&lt;div&gt;(Network&lt;/div&gt;&lt;div&gt;Interface&lt;/div&gt;&lt;div&gt;Controller)&lt;/div&gt;" style="rounded=0;whiteSpace=wrap;html=1;" vertex="1" parent="WIyWlLk6GJQsqaUBKTNV-1">
          <mxGeometry x="85" y="860" width="85" height="70" as="geometry" />
        </mxCell>
        <mxCell id="14brt2lEtJcqYIxQrarm-33" value="NIC Card&lt;div&gt;(Network&lt;/div&gt;&lt;div&gt;Interface&lt;/div&gt;&lt;div&gt;Controller)&lt;/div&gt;" style="rounded=0;whiteSpace=wrap;html=1;" vertex="1" parent="WIyWlLk6GJQsqaUBKTNV-1">
          <mxGeometry x="-60" y="860" width="85" height="70" as="geometry" />
        </mxCell>
        <mxCell id="14brt2lEtJcqYIxQrarm-34" value="" style="endArrow=classic;startArrow=classic;html=1;rounded=0;" edge="1" parent="WIyWlLk6GJQsqaUBKTNV-1" source="14brt2lEtJcqYIxQrarm-33" target="14brt2lEtJcqYIxQrarm-32">
          <mxGeometry width="50" height="50" relative="1" as="geometry">
            <mxPoint x="190" y="810" as="sourcePoint" />
            <mxPoint x="240" y="760" as="targetPoint" />
          </mxGeometry>
        </mxCell>
        <mxCell id="14brt2lEtJcqYIxQrarm-35" value="LAN Cable" style="text;html=1;align=center;verticalAlign=middle;whiteSpace=wrap;rounded=0;" vertex="1" parent="WIyWlLk6GJQsqaUBKTNV-1">
          <mxGeometry x="20" y="860" width="60" height="30" as="geometry" />
        </mxCell>
        <mxCell id="14brt2lEtJcqYIxQrarm-37" value="IP&lt;div&gt;Address&lt;/div&gt;" style="text;html=1;align=center;verticalAlign=middle;whiteSpace=wrap;rounded=0;" vertex="1" parent="WIyWlLk6GJQsqaUBKTNV-1">
          <mxGeometry x="220" y="820" width="60" height="30" as="geometry" />
        </mxCell>
        <mxCell id="14brt2lEtJcqYIxQrarm-38" value="Mac&lt;div&gt;Address&lt;/div&gt;" style="text;html=1;align=center;verticalAlign=middle;whiteSpace=wrap;rounded=0;" vertex="1" parent="WIyWlLk6GJQsqaUBKTNV-1">
          <mxGeometry x="220" y="880" width="60" height="30" as="geometry" />
        </mxCell>
        <mxCell id="14brt2lEtJcqYIxQrarm-39" value="하드웨어&lt;div&gt;고유 주소&lt;/div&gt;" style="text;html=1;align=center;verticalAlign=middle;whiteSpace=wrap;rounded=0;" vertex="1" parent="WIyWlLk6GJQsqaUBKTNV-1">
          <mxGeometry x="280" y="880" width="100" height="30" as="geometry" />
        </mxCell>
        <mxCell id="14brt2lEtJcqYIxQrarm-40" value="네트워크 식별용 고유 주소" style="text;html=1;align=center;verticalAlign=middle;whiteSpace=wrap;rounded=0;" vertex="1" parent="WIyWlLk6GJQsqaUBKTNV-1">
          <mxGeometry x="280" y="820" width="100" height="30" as="geometry" />
        </mxCell>
        <mxCell id="14brt2lEtJcqYIxQrarm-41" value="프로토콜&lt;div&gt;데이터 전송 규약&lt;/div&gt;" style="text;html=1;align=center;verticalAlign=middle;whiteSpace=wrap;rounded=0;" vertex="1" parent="WIyWlLk6GJQsqaUBKTNV-1">
          <mxGeometry x="280" y="760" width="100" height="30" as="geometry" />
        </mxCell>
        <mxCell id="14brt2lEtJcqYIxQrarm-42" value="TCP, UDP" style="text;html=1;align=center;verticalAlign=middle;whiteSpace=wrap;rounded=0;" vertex="1" parent="WIyWlLk6GJQsqaUBKTNV-1">
          <mxGeometry x="221.57" y="760" width="60" height="30" as="geometry" />
        </mxCell>
        <mxCell id="14brt2lEtJcqYIxQrarm-45" value="Socket" style="text;html=1;align=center;verticalAlign=middle;whiteSpace=wrap;rounded=0;fillColor=#f5f5f5;fontColor=#333333;strokeColor=#666666;" vertex="1" parent="WIyWlLk6GJQsqaUBKTNV-1">
          <mxGeometry x="221.57" y="750" width="58.43" height="10" as="geometry" />
        </mxCell>
        <mxCell id="14brt2lEtJcqYIxQrarm-46" value="Port" style="text;html=1;align=center;verticalAlign=middle;whiteSpace=wrap;rounded=0;fillColor=#f5f5f5;fontColor=#333333;strokeColor=#666666;" vertex="1" parent="WIyWlLk6GJQsqaUBKTNV-1">
          <mxGeometry x="210" y="740" width="30" height="10" as="geometry" />
        </mxCell>
        <mxCell id="14brt2lEtJcqYIxQrarm-47" value="Port" style="text;html=1;align=center;verticalAlign=middle;whiteSpace=wrap;rounded=0;fillColor=#f5f5f5;fontColor=#333333;strokeColor=#666666;" vertex="1" parent="WIyWlLk6GJQsqaUBKTNV-1">
          <mxGeometry x="260" y="740" width="30" height="10" as="geometry" />
        </mxCell>
        <mxCell id="14brt2lEtJcqYIxQrarm-48" value="Network" style="rounded=0;whiteSpace=wrap;html=1;" vertex="1" parent="WIyWlLk6GJQsqaUBKTNV-1">
          <mxGeometry x="85" y="810" width="85" height="50" as="geometry" />
        </mxCell>
        <mxCell id="14brt2lEtJcqYIxQrarm-49" value="Transport" style="rounded=0;whiteSpace=wrap;html=1;" vertex="1" parent="WIyWlLk6GJQsqaUBKTNV-1">
          <mxGeometry x="85" y="760" width="85" height="50" as="geometry" />
        </mxCell>
        <mxCell id="14brt2lEtJcqYIxQrarm-50" value="Application" style="rounded=0;whiteSpace=wrap;html=1;" vertex="1" parent="WIyWlLk6GJQsqaUBKTNV-1">
          <mxGeometry x="85" y="680" width="85" height="80" as="geometry" />
        </mxCell>
        <mxCell id="14brt2lEtJcqYIxQrarm-51" value="" style="endArrow=none;html=1;rounded=0;exitX=0;exitY=1;exitDx=0;exitDy=0;" edge="1" parent="WIyWlLk6GJQsqaUBKTNV-1" source="14brt2lEtJcqYIxQrarm-50">
          <mxGeometry width="50" height="50" relative="1" as="geometry">
            <mxPoint x="230" y="820" as="sourcePoint" />
            <mxPoint y="760" as="targetPoint" />
          </mxGeometry>
        </mxCell>
        <mxCell id="14brt2lEtJcqYIxQrarm-53" value="User" style="text;html=1;align=center;verticalAlign=middle;whiteSpace=wrap;rounded=0;" vertex="1" parent="WIyWlLk6GJQsqaUBKTNV-1">
          <mxGeometry x="10" y="705" width="60" height="30" as="geometry" />
        </mxCell>
        <mxCell id="14brt2lEtJcqYIxQrarm-54" value="Kernal&lt;div&gt;(OS program)&lt;/div&gt;" style="text;html=1;align=center;verticalAlign=middle;whiteSpace=wrap;rounded=0;" vertex="1" parent="WIyWlLk6GJQsqaUBKTNV-1">
          <mxGeometry y="790" width="80" height="30" as="geometry" />
        </mxCell>
        <mxCell id="14brt2lEtJcqYIxQrarm-55" value="" style="endArrow=none;html=1;rounded=0;exitX=0;exitY=1;exitDx=0;exitDy=0;" edge="1" parent="WIyWlLk6GJQsqaUBKTNV-1" source="14brt2lEtJcqYIxQrarm-48">
          <mxGeometry width="50" height="50" relative="1" as="geometry">
            <mxPoint x="95" y="770" as="sourcePoint" />
            <mxPoint x="-110" y="860" as="targetPoint" />
          </mxGeometry>
        </mxCell>
        <mxCell id="14brt2lEtJcqYIxQrarm-56" value="SW" style="text;html=1;align=center;verticalAlign=middle;whiteSpace=wrap;rounded=0;" vertex="1" parent="WIyWlLk6GJQsqaUBKTNV-1">
          <mxGeometry x="-120" y="750" width="60" height="30" as="geometry" />
        </mxCell>
        <mxCell id="14brt2lEtJcqYIxQrarm-57" value="HW" style="text;html=1;align=center;verticalAlign=middle;whiteSpace=wrap;rounded=0;" vertex="1" parent="WIyWlLk6GJQsqaUBKTNV-1">
          <mxGeometry x="-120" y="880" width="60" height="30" as="geometry" />
        </mxCell>
        <mxCell id="14brt2lEtJcqYIxQrarm-58" value="계층" style="rounded=0;whiteSpace=wrap;html=1;" vertex="1" parent="WIyWlLk6GJQsqaUBKTNV-1">
          <mxGeometry x="85" y="655" width="85" height="20" as="geometry" />
        </mxCell>
        <mxCell id="14brt2lEtJcqYIxQrarm-59" value="데이터 단위" style="rounded=0;whiteSpace=wrap;html=1;" vertex="1" parent="WIyWlLk6GJQsqaUBKTNV-1">
          <mxGeometry x="390" y="655" width="90" height="20" as="geometry" />
        </mxCell>
        <mxCell id="14brt2lEtJcqYIxQrarm-60" value="Stream&lt;div&gt;(전송하고싶은 목표 데이터 일괄)&lt;/div&gt;" style="rounded=0;whiteSpace=wrap;html=1;" vertex="1" parent="WIyWlLk6GJQsqaUBKTNV-1">
          <mxGeometry x="385" y="690" width="100" height="50" as="geometry" />
        </mxCell>
        <mxCell id="14brt2lEtJcqYIxQrarm-61" value="Segment&lt;div&gt;(전송가능한 단위로 자른 분절)&lt;/div&gt;" style="rounded=0;whiteSpace=wrap;html=1;" vertex="1" parent="WIyWlLk6GJQsqaUBKTNV-1">
          <mxGeometry x="385" y="760" width="100" height="50" as="geometry" />
        </mxCell>
        <mxCell id="14brt2lEtJcqYIxQrarm-62" value="전송하고 싶은 데이터" style="rounded=0;whiteSpace=wrap;html=1;fillColor=#dae8fc;strokeColor=#6c8ebf;" vertex="1" parent="WIyWlLk6GJQsqaUBKTNV-1">
          <mxGeometry x="510" y="700" width="530" height="30" as="geometry" />
        </mxCell>
        <mxCell id="14brt2lEtJcqYIxQrarm-64" value="MTU (Max Transport Unit) : 1500bytes" style="text;html=1;align=center;verticalAlign=middle;whiteSpace=wrap;rounded=0;" vertex="1" parent="WIyWlLk6GJQsqaUBKTNV-1">
          <mxGeometry x="750" y="770" width="210" height="30" as="geometry" />
        </mxCell>
        <mxCell id="14brt2lEtJcqYIxQrarm-66" value="&lt;font style=&quot;font-size: 10px;&quot;&gt;전송하고 싶은 데이터를&lt;/font&gt;&lt;div style=&quot;font-size: 10px;&quot;&gt;&lt;font style=&quot;font-size: 10px;&quot;&gt;MTU 단위로 쪼갠 데이터&lt;/font&gt;&lt;/div&gt;" style="rounded=0;whiteSpace=wrap;html=1;fillColor=#D9FCEE;strokeColor=#6c8ebf;fontSize=10;" vertex="1" parent="WIyWlLk6GJQsqaUBKTNV-1">
          <mxGeometry x="600" y="770" width="140" height="30" as="geometry" />
        </mxCell>
        <mxCell id="14brt2lEtJcqYIxQrarm-67" value="&lt;font style=&quot;font-size: 10px;&quot;&gt;전송 프로토콜 헤더&lt;/font&gt;" style="rounded=0;whiteSpace=wrap;html=1;fillColor=#ffe6cc;strokeColor=#d79b00;" vertex="1" parent="WIyWlLk6GJQsqaUBKTNV-1">
          <mxGeometry x="510" y="770" width="90" height="30" as="geometry" />
        </mxCell>
        <mxCell id="14brt2lEtJcqYIxQrarm-68" value="Packet" style="rounded=0;whiteSpace=wrap;html=1;" vertex="1" parent="WIyWlLk6GJQsqaUBKTNV-1">
          <mxGeometry x="385" y="810" width="100" height="50" as="geometry" />
        </mxCell>
        <mxCell id="14brt2lEtJcqYIxQrarm-69" value="&lt;font style=&quot;font-size: 10px;&quot;&gt;전송하고 싶은 데이터를&lt;/font&gt;&lt;div style=&quot;font-size: 10px;&quot;&gt;&lt;font style=&quot;font-size: 10px;&quot;&gt;MTU 단위로 쪼갠 데이터&lt;/font&gt;&lt;/div&gt;" style="rounded=0;whiteSpace=wrap;html=1;fillColor=#D9FCEE;strokeColor=#6c8ebf;fontSize=10;" vertex="1" parent="WIyWlLk6GJQsqaUBKTNV-1">
          <mxGeometry x="690" y="820" width="140" height="30" as="geometry" />
        </mxCell>
        <mxCell id="14brt2lEtJcqYIxQrarm-70" value="&lt;font style=&quot;font-size: 10px;&quot;&gt;전송 프로토콜 헤더&lt;/font&gt;" style="rounded=0;whiteSpace=wrap;html=1;fillColor=#ffe6cc;strokeColor=#d79b00;" vertex="1" parent="WIyWlLk6GJQsqaUBKTNV-1">
          <mxGeometry x="600" y="820" width="90" height="30" as="geometry" />
        </mxCell>
        <mxCell id="14brt2lEtJcqYIxQrarm-71" value="&lt;font style=&quot;font-size: 10px;&quot;&gt;네트워크 주소 헤더&lt;/font&gt;" style="rounded=0;whiteSpace=wrap;html=1;fillColor=#f8cecc;strokeColor=#b85450;" vertex="1" parent="WIyWlLk6GJQsqaUBKTNV-1">
          <mxGeometry x="510" y="820" width="90" height="30" as="geometry" />
        </mxCell>
        <mxCell id="14brt2lEtJcqYIxQrarm-72" value="Frame" style="rounded=0;whiteSpace=wrap;html=1;" vertex="1" parent="WIyWlLk6GJQsqaUBKTNV-1">
          <mxGeometry x="385" y="860" width="100" height="50" as="geometry" />
        </mxCell>
        <mxCell id="14brt2lEtJcqYIxQrarm-73" value="&lt;font style=&quot;font-size: 10px;&quot;&gt;전송하고 싶은 데이터를&lt;/font&gt;&lt;div style=&quot;font-size: 10px;&quot;&gt;&lt;font style=&quot;font-size: 10px;&quot;&gt;MTU 단위로 쪼갠 데이터&lt;/font&gt;&lt;/div&gt;" style="rounded=0;whiteSpace=wrap;html=1;fillColor=#D9FCEE;strokeColor=#6c8ebf;fontSize=10;" vertex="1" parent="WIyWlLk6GJQsqaUBKTNV-1">
          <mxGeometry x="730" y="870" width="140" height="30" as="geometry" />
        </mxCell>
        <mxCell id="14brt2lEtJcqYIxQrarm-74" value="&lt;font style=&quot;font-size: 10px;&quot;&gt;전송 프로토콜 헤더&lt;/font&gt;" style="rounded=0;whiteSpace=wrap;html=1;fillColor=#ffe6cc;strokeColor=#d79b00;" vertex="1" parent="WIyWlLk6GJQsqaUBKTNV-1">
          <mxGeometry x="640" y="870" width="90" height="30" as="geometry" />
        </mxCell>
        <mxCell id="14brt2lEtJcqYIxQrarm-75" value="&lt;font style=&quot;font-size: 10px;&quot;&gt;네트워크 주소 헤더&lt;/font&gt;" style="rounded=0;whiteSpace=wrap;html=1;fillColor=#f8cecc;strokeColor=#b85450;" vertex="1" parent="WIyWlLk6GJQsqaUBKTNV-1">
          <mxGeometry x="550" y="870" width="90" height="30" as="geometry" />
        </mxCell>
        <mxCell id="14brt2lEtJcqYIxQrarm-76" value="프레임&lt;div style=&quot;font-size: 10px;&quot;&gt;시작&lt;/div&gt;" style="rounded=0;whiteSpace=wrap;html=1;fillColor=#e1d5e7;strokeColor=#9673a6;fontSize=10;" vertex="1" parent="WIyWlLk6GJQsqaUBKTNV-1">
          <mxGeometry x="510" y="870" width="40" height="30" as="geometry" />
        </mxCell>
        <mxCell id="14brt2lEtJcqYIxQrarm-77" value="프레임&lt;div style=&quot;font-size: 10px;&quot;&gt;끝&lt;/div&gt;" style="rounded=0;whiteSpace=wrap;html=1;fillColor=#e1d5e7;strokeColor=#9673a6;fontSize=10;" vertex="1" parent="WIyWlLk6GJQsqaUBKTNV-1">
          <mxGeometry x="870" y="870" width="40" height="30" as="geometry" />
        </mxCell>
        <mxCell id="14brt2lEtJcqYIxQrarm-78" value="Payload" style="text;html=1;align=center;verticalAlign=middle;whiteSpace=wrap;rounded=0;" vertex="1" parent="WIyWlLk6GJQsqaUBKTNV-1">
          <mxGeometry x="630" y="740" width="60" height="30" as="geometry" />
        </mxCell>
      </root>
    </mxGraphModel>
  </diagram>
</mxfile>
